<svg width="116" height="91" viewBox="0 0 116 91" fill="none" xmlns="http://www.w3.org/2000/svg">
<path d="M94.9255 12.4131C94.8956 12.3568 94.8461 12.3127 94.7859 12.2887C87.8192 9.18039 80.4675 6.96334 72.9145 5.69294C72.8459 5.68053 72.7749 5.68948 72.7118 5.71852C72.6487 5.74755 72.5966 5.7952 72.563 5.85468C71.5615 7.62187 70.6523 9.43707 69.839 11.2933C61.6955 10.0916 53.4121 10.0916 45.2686 11.2933C44.4496 9.43233 43.5256 7.61668 42.5007 5.85468C42.4656 5.79649 42.4132 5.74994 42.3505 5.7211C42.2878 5.69225 42.2175 5.68244 42.149 5.69294C34.5905 6.95946 27.2336 9.17664 20.2636 12.2887C20.2039 12.3132 20.1536 12.3552 20.1195 12.4088C6.18127 32.6499 2.36408 52.3784 4.23611 71.8759C4.24138 71.9237 4.25647 71.9699 4.2805 72.0119C4.30452 72.0539 4.33699 72.0907 4.37596 72.1203C12.4905 77.9571 21.5655 82.412 31.2142 85.2948C31.2822 85.3147 31.3548 85.3138 31.4222 85.2923C31.4896 85.2708 31.5487 85.2298 31.5914 85.1747C33.664 82.4338 35.5006 79.5314 37.0826 76.497C37.1044 76.4553 37.1168 76.4097 37.119 76.363C37.1213 76.3164 37.1134 76.2698 37.0958 76.2263C37.0782 76.1828 37.0513 76.1435 37.0169 76.1109C36.9825 76.0782 36.9414 76.0531 36.8963 76.037C34 74.9598 31.196 73.6612 28.5106 72.1535C28.4618 72.1256 28.4208 72.0865 28.3913 72.0396C28.3617 71.9927 28.3445 71.9394 28.3412 71.8845C28.3379 71.8296 28.3485 71.7747 28.3721 71.7247C28.3958 71.6747 28.4317 71.6312 28.4767 71.5979C29.0402 71.1875 29.604 70.7606 30.142 70.3294C30.1898 70.2911 30.2477 70.2666 30.309 70.2586C30.3704 70.2505 30.4329 70.2593 30.4894 70.2839C48.0817 78.09 67.1256 78.09 84.5114 70.2839C84.5681 70.2577 84.6312 70.2477 84.6935 70.2551C84.7557 70.2624 84.8146 70.2868 84.8632 70.3253C85.4014 70.7565 85.965 71.1875 86.5326 71.5979C86.5779 71.6308 86.6142 71.6741 86.6382 71.7239C86.6622 71.7737 86.6732 71.8285 86.6703 71.8834C86.6674 71.9383 86.6506 71.9917 86.6214 72.0388C86.5922 72.0859 86.5516 72.1253 86.503 72.1535C83.8239 73.6741 81.0174 74.972 78.1136 76.0334C78.0685 76.0501 78.0275 76.0759 77.9934 76.109C77.9592 76.1421 77.9327 76.1819 77.9154 76.2257C77.8982 76.2695 77.8906 76.3164 77.8932 76.3632C77.8959 76.41 77.9087 76.4558 77.9308 76.4975C79.5389 79.5158 81.3726 82.4153 83.4171 85.1727C83.4586 85.2293 83.5173 85.2717 83.585 85.2941C83.6527 85.3164 83.7259 85.3175 83.7942 85.2971C93.4644 82.4202 102.558 77.9594 110.684 72.1069C110.724 72.0789 110.757 72.0429 110.781 72.0015C110.805 71.96 110.82 71.9141 110.824 71.8666C113.061 49.3392 107.064 29.7706 94.9255 12.4131ZM39.7152 60.0032C34.419 60.0032 30.0552 55.2773 30.0552 49.4742C30.0552 43.6712 34.3404 38.9417 39.7152 38.9417C45.1393 38.9417 49.4611 43.7085 49.3751 49.4707C49.3678 55.1155 45.0899 60.0032 39.7152 60.0032ZM75.4374 60.0032C70.1412 60.0032 65.7774 55.2773 65.7774 49.4742C65.7774 43.6712 70.0443 38.9417 75.4374 38.9417C80.8615 38.9417 85.1833 43.7085 85.0973 49.4707C85.09 55.1155 80.8487 60.0032 75.4374 60.0032Z" fill="#4200FF"/>
</svg>
