<svg width="118" height="118" viewBox="0 0 118 118" fill="none" xmlns="http://www.w3.org/2000/svg">
<path fill-rule="evenodd" clip-rule="evenodd" d="M59 118C91.5845 118 118 91.5845 118 59C118 26.4152 91.5845 0 59 0C26.4152 0 0 26.4152 0 59C0 91.5845 26.4152 118 59 118Z" fill="#0DBD8B"/>
<path fill-rule="evenodd" clip-rule="evenodd" d="M48.213 27.4908C48.213 25.1093 50.1476 23.1787 52.5341 23.1787C68.709 23.1787 81.8218 36.2639 81.8218 52.4053C81.8218 54.7868 79.8866 56.7174 77.5006 56.7174C75.1141 56.7174 73.1794 54.7868 73.1794 52.4053C73.1794 41.027 63.9359 31.803 52.5341 31.803C50.1476 31.803 48.213 29.8724 48.213 27.4908Z" fill="white"/>
<path fill-rule="evenodd" clip-rule="evenodd" d="M90.5001 48.093C92.8866 48.093 94.8212 50.0236 94.8212 52.4052C94.8212 68.5467 81.7091 81.6317 65.5342 81.6317C63.1477 81.6317 61.2131 79.7013 61.2131 77.3194C61.2131 74.9382 63.1477 73.0077 65.5342 73.0077C76.936 73.0077 86.1789 63.7837 86.1789 52.4052C86.1789 50.0236 88.1135 48.093 90.5001 48.093Z" fill="white"/>
<path fill-rule="evenodd" clip-rule="evenodd" d="M69.8548 90.509C69.8548 92.8908 67.9202 94.8213 65.5337 94.8213C49.3589 94.8213 36.2465 81.7362 36.2465 65.5944C36.2465 63.2132 38.1811 61.2827 40.5676 61.2827C42.9541 61.2827 44.8887 63.2132 44.8887 65.5944C44.8887 76.9732 54.1318 86.1972 65.5337 86.1972C67.9202 86.1972 69.8548 88.1277 69.8548 90.509Z" fill="white"/>
<path fill-rule="evenodd" clip-rule="evenodd" d="M27.4997 69.9068C25.1132 69.9068 23.1786 67.9763 23.1786 65.5951C23.1786 49.4534 36.291 36.3682 52.466 36.3682C54.8525 36.3682 56.7871 38.2988 56.7871 40.6804C56.7871 43.0619 54.8525 44.9925 52.466 44.9925C41.064 44.9925 31.8209 54.2164 31.8209 65.5951C31.8209 67.9763 29.8862 69.9068 27.4997 69.9068Z" fill="white"/>
</svg>
