<svg width="48" height="48" viewBox="0 0 48 48" fill="none" xmlns="http://www.w3.org/2000/svg">
<path d="M24 4.79999C13.3968 4.79999 4.79999 13.3968 4.79999 24C4.79999 34.6032 13.3968 43.2 24 43.2C34.6032 43.2 43.2 34.6032 43.2 24C43.2 13.3968 34.6032 4.79999 24 4.79999ZM33.6 25.6H25.6V33.6C25.6 34.4848 24.8832 35.2 24 35.2C23.1168 35.2 22.4 34.4848 22.4 33.6V25.6H14.4C13.5168 25.6 12.8 24.8848 12.8 24C12.8 23.1152 13.5168 22.4 14.4 22.4H22.4V14.4C22.4 13.5152 23.1168 12.8 24 12.8C24.8832 12.8 25.6 13.5152 25.6 14.4V22.4H33.6C34.4832 22.4 35.2 23.1152 35.2 24C35.2 24.8848 34.4832 25.6 33.6 25.6Z" fill="#EBA419"/>
</svg>
