<svg width="316" height="54" viewBox="0 0 316 54" fill="none" xmlns="http://www.w3.org/2000/svg">
<rect y="0.75" width="316" height="52.5" rx="26.25" fill="#EEA619"/>
<path d="M39.5104 37.375V20.575H52.4944V23.071H42.1024V27.895H51.4144V30.391H42.1024V37.375H39.5104ZM69.9137 31.063C69.9137 32.343 69.5777 33.479 68.9057 34.471C68.2497 35.447 67.3297 36.215 66.1457 36.775C64.9777 37.335 63.6337 37.615 62.1137 37.615C60.5937 37.615 59.2417 37.335 58.0577 36.775C56.8897 36.215 55.9697 35.447 55.2977 34.471C54.6417 33.479 54.3137 32.343 54.3137 31.063C54.3137 29.783 54.6417 28.655 55.2977 27.679C55.9697 26.687 56.8897 25.911 58.0577 25.351C59.2417 24.791 60.5937 24.511 62.1137 24.511C63.6337 24.511 64.9777 24.791 66.1457 25.351C67.3297 25.911 68.2497 26.687 68.9057 27.679C69.5777 28.655 69.9137 29.783 69.9137 31.063ZM67.3937 31.063C67.4097 30.215 67.1857 29.471 66.7217 28.831C66.2577 28.175 65.6257 27.671 64.8257 27.319C64.0257 26.951 63.1217 26.767 62.1137 26.767C61.1217 26.767 60.2177 26.951 59.4017 27.319C58.6017 27.671 57.9617 28.175 57.4817 28.831C57.0177 29.471 56.8017 30.215 56.8337 31.063C56.8017 31.895 57.0177 32.639 57.4817 33.295C57.9617 33.935 58.6017 34.439 59.4017 34.807C60.2177 35.175 61.1217 35.359 62.1137 35.359C63.1217 35.359 64.0257 35.175 64.8257 34.807C65.6257 34.439 66.2577 33.935 66.7217 33.295C67.1857 32.639 67.4097 31.895 67.3937 31.063ZM73.4261 37.375V19.615H75.8981V37.375H73.4261ZM81.0405 37.375V19.615H83.5125V37.375H81.0405ZM102.436 31.063C102.436 32.343 102.1 33.479 101.428 34.471C100.772 35.447 99.8525 36.215 98.6685 36.775C97.5005 37.335 96.1565 37.615 94.6365 37.615C93.1165 37.615 91.7645 37.335 90.5805 36.775C89.4125 36.215 88.4925 35.447 87.8205 34.471C87.1645 33.479 86.8365 32.343 86.8365 31.063C86.8365 29.783 87.1645 28.655 87.8205 27.679C88.4925 26.687 89.4125 25.911 90.5805 25.351C91.7645 24.791 93.1165 24.511 94.6365 24.511C96.1565 24.511 97.5005 24.791 98.6685 25.351C99.8525 25.911 100.772 26.687 101.428 27.679C102.1 28.655 102.436 29.783 102.436 31.063ZM99.9165 31.063C99.9325 30.215 99.7085 29.471 99.2445 28.831C98.7805 28.175 98.1485 27.671 97.3485 27.319C96.5485 26.951 95.6445 26.767 94.6365 26.767C93.6445 26.767 92.7405 26.951 91.9245 27.319C91.1245 27.671 90.4845 28.175 90.0045 28.831C89.5405 29.471 89.3245 30.215 89.3565 31.063C89.3245 31.895 89.5405 32.639 90.0045 33.295C90.4845 33.935 91.1245 34.439 91.9245 34.807C92.7405 35.175 93.6445 35.359 94.6365 35.359C95.6445 35.359 96.5485 35.175 97.3485 34.807C98.1485 34.439 98.7805 33.935 99.2445 33.295C99.7085 32.639 99.9325 31.895 99.9165 31.063ZM123.216 24.775L118.344 37.375H116.64L112.896 29.599L109.2 37.375H107.52L102.984 24.775L105.672 24.751L108.528 33.799L111.912 26.767H113.856L117.36 33.967L120.72 24.775H123.216ZM146.959 31.063C146.959 32.343 146.623 33.479 145.951 34.471C145.295 35.447 144.375 36.215 143.191 36.775C142.023 37.335 140.679 37.615 139.159 37.615C137.639 37.615 136.287 37.335 135.103 36.775C133.935 36.215 133.015 35.447 132.343 34.471C131.687 33.479 131.359 32.343 131.359 31.063C131.359 29.783 131.687 28.655 132.343 27.679C133.015 26.687 133.935 25.911 135.103 25.351C136.287 24.791 137.639 24.511 139.159 24.511C140.679 24.511 142.023 24.791 143.191 25.351C144.375 25.911 145.295 26.687 145.951 27.679C146.623 28.655 146.959 29.783 146.959 31.063ZM144.439 31.063C144.455 30.215 144.231 29.471 143.767 28.831C143.303 28.175 142.671 27.671 141.871 27.319C141.071 26.951 140.167 26.767 139.159 26.767C138.167 26.767 137.263 26.951 136.447 27.319C135.647 27.671 135.007 28.175 134.527 28.831C134.063 29.471 133.847 30.215 133.879 31.063C133.847 31.895 134.063 32.639 134.527 33.295C135.007 33.935 135.647 34.439 136.447 34.807C137.263 35.175 138.167 35.359 139.159 35.359C140.167 35.359 141.071 35.175 141.871 34.807C142.671 34.439 143.303 33.935 143.767 33.295C144.231 32.639 144.455 31.895 144.439 31.063ZM158.128 24.511C159.392 24.511 160.432 24.759 161.248 25.255C162.064 25.735 162.664 26.383 163.048 27.199C163.448 27.999 163.648 28.887 163.648 29.863V37.375H161.176V30.199C161.176 29.191 160.832 28.367 160.144 27.727C159.456 27.087 158.568 26.775 157.48 26.791C156.632 26.791 155.88 26.983 155.224 27.367C154.568 27.751 154.056 28.223 153.688 28.783C153.32 29.343 153.136 29.895 153.136 30.439V37.375H150.664V24.775H153.136V27.007C153.664 26.351 154.352 25.775 155.2 25.279C156.048 24.767 157.024 24.511 158.128 24.511ZM193.7 28.975C193.7 30.191 193.46 31.327 192.98 32.383C192.516 33.423 191.852 34.335 190.988 35.119C190.124 35.903 189.108 36.519 187.94 36.967C186.772 37.399 185.484 37.615 184.076 37.615C182.668 37.615 181.372 37.399 180.188 36.967C179.02 36.519 178.004 35.903 177.14 35.119C176.292 34.335 175.636 33.423 175.172 32.383C174.708 31.327 174.476 30.191 174.476 28.975C174.476 27.759 174.708 26.631 175.172 25.591C175.636 24.535 176.292 23.615 177.14 22.831C178.004 22.047 179.02 21.439 180.188 21.007C181.372 20.559 182.668 20.335 184.076 20.335C185.484 20.335 186.772 20.559 187.94 21.007C189.108 21.439 190.124 22.047 190.988 22.831C191.852 23.615 192.516 24.535 192.98 25.591C193.46 26.631 193.7 27.759 193.7 28.975ZM191.06 28.975C191.06 27.807 190.756 26.767 190.148 25.855C189.556 24.927 188.732 24.199 187.676 23.671C186.636 23.127 185.436 22.855 184.076 22.855C182.7 22.855 181.484 23.127 180.428 23.671C179.388 24.199 178.572 24.927 177.98 25.855C177.404 26.767 177.116 27.807 177.116 28.975C177.116 30.143 177.404 31.191 177.98 32.119C178.572 33.031 179.388 33.759 180.428 34.303C181.484 34.831 182.7 35.095 184.076 35.095C185.436 35.095 186.636 34.831 187.676 34.303C188.732 33.759 189.556 33.023 190.148 32.095C190.756 31.167 191.06 30.127 191.06 28.975ZM210.422 19.615V37.375H207.95V35.287C207.646 35.687 207.214 36.063 206.654 36.415C206.11 36.767 205.478 37.055 204.758 37.279C204.054 37.503 203.31 37.615 202.526 37.615C201.102 37.615 199.854 37.335 198.782 36.775C197.726 36.215 196.902 35.439 196.31 34.447C195.734 33.455 195.446 32.327 195.446 31.063C195.446 29.783 195.75 28.655 196.358 27.679C196.966 26.687 197.806 25.911 198.878 25.351C199.966 24.791 201.206 24.511 202.598 24.511C203.782 24.511 204.846 24.711 205.79 25.111C206.734 25.511 207.454 25.983 207.95 26.527V19.615H210.422ZM203.006 35.383C204.014 35.383 204.894 35.199 205.646 34.831C206.398 34.447 206.982 33.927 207.398 33.271C207.83 32.615 208.046 31.879 208.046 31.063C208.046 30.247 207.83 29.519 207.398 28.879C206.982 28.223 206.398 27.711 205.646 27.343C204.894 26.959 204.014 26.767 203.006 26.767C202.014 26.767 201.134 26.959 200.366 27.343C199.614 27.711 199.022 28.223 198.59 28.879C198.174 29.519 197.966 30.247 197.966 31.063C197.966 31.879 198.174 32.615 198.59 33.271C199.022 33.927 199.614 34.447 200.366 34.831C201.134 35.199 202.014 35.383 203.006 35.383ZM217.191 42.895L219.855 37.999L212.847 24.775H215.727L219.519 32.335C219.871 33.007 220.191 33.647 220.479 34.255C220.767 34.847 220.991 35.383 221.151 35.863C221.359 35.367 221.591 34.823 221.847 34.231C222.103 33.639 222.407 32.991 222.759 32.287L226.263 24.775H229.167L222.663 37.351L219.855 42.895H217.191ZM240.976 28.183C240.368 27.719 239.632 27.335 238.768 27.031C237.904 26.711 237.08 26.551 236.296 26.551C235.816 26.551 235.312 26.591 234.784 26.671C234.256 26.751 233.8 26.903 233.416 27.127C233.048 27.335 232.864 27.647 232.864 28.063C232.864 28.431 233.04 28.735 233.392 28.975C233.76 29.215 234.232 29.415 234.808 29.575C235.4 29.719 236.048 29.855 236.752 29.983C237.44 30.111 238.112 30.263 238.768 30.439C239.44 30.599 240.048 30.815 240.592 31.087C241.136 31.343 241.568 31.679 241.888 32.095C242.224 32.495 242.392 32.999 242.392 33.607C242.392 34.487 242.128 35.223 241.6 35.815C241.072 36.407 240.368 36.855 239.488 37.159C238.624 37.463 237.672 37.615 236.632 37.615C235.32 37.615 234.096 37.439 232.96 37.087C231.824 36.735 230.872 36.127 230.104 35.263L231.784 33.727C232.36 34.303 233.04 34.751 233.824 35.071C234.608 35.391 235.496 35.551 236.488 35.551C236.968 35.551 237.472 35.511 238 35.431C238.544 35.335 239 35.175 239.368 34.951C239.752 34.727 239.944 34.399 239.944 33.967C239.944 33.599 239.752 33.311 239.368 33.103C239 32.879 238.512 32.695 237.904 32.551C237.312 32.407 236.664 32.279 235.96 32.167C235.208 32.023 234.496 31.863 233.824 31.687C233.152 31.511 232.56 31.287 232.048 31.015C231.536 30.727 231.128 30.359 230.824 29.911C230.536 29.447 230.392 28.863 230.392 28.159C230.392 27.407 230.648 26.759 231.16 26.215C231.688 25.671 232.4 25.255 233.296 24.967C234.192 24.663 235.184 24.511 236.272 24.511C236.944 24.511 237.656 24.583 238.408 24.727C239.16 24.855 239.88 25.071 240.568 25.375C241.256 25.663 241.84 26.047 242.32 26.527L240.976 28.183ZM258.328 35.719H258.304C257.856 36.039 257.296 36.351 256.624 36.655C255.968 36.943 255.24 37.175 254.44 37.351C253.64 37.527 252.824 37.615 251.992 37.615C250.408 37.615 249.008 37.343 247.792 36.799C246.592 36.239 245.656 35.479 244.984 34.519C244.312 33.543 243.976 32.439 243.976 31.207C243.976 29.799 244.328 28.599 245.032 27.607C245.752 26.599 246.704 25.831 247.888 25.303C249.072 24.759 250.368 24.487 251.776 24.487C253.088 24.487 254.28 24.751 255.352 25.279C256.424 25.791 257.28 26.503 257.92 27.415C258.56 28.327 258.88 29.391 258.88 30.607L258.856 31.831H246.496C246.72 32.919 247.36 33.775 248.416 34.399C249.488 35.023 250.816 35.335 252.4 35.335C253.584 35.335 254.552 35.167 255.304 34.831C256.072 34.495 256.696 34.175 257.176 33.871L258.328 35.719ZM251.776 26.767C250.48 26.767 249.344 27.007 248.368 27.487C247.408 27.951 246.8 28.743 246.544 29.863H256.36V29.527C256.28 28.983 256.016 28.503 255.568 28.087C255.12 27.671 254.56 27.351 253.888 27.127C253.232 26.887 252.528 26.767 251.776 26.767ZM275.224 35.719H275.2C274.752 36.039 274.192 36.351 273.52 36.655C272.864 36.943 272.136 37.175 271.336 37.351C270.536 37.527 269.72 37.615 268.888 37.615C267.304 37.615 265.904 37.343 264.688 36.799C263.488 36.239 262.552 35.479 261.88 34.519C261.208 33.543 260.872 32.439 260.872 31.207C260.872 29.799 261.224 28.599 261.928 27.607C262.648 26.599 263.6 25.831 264.784 25.303C265.968 24.759 267.264 24.487 268.672 24.487C269.984 24.487 271.176 24.751 272.248 25.279C273.32 25.791 274.176 26.503 274.816 27.415C275.456 28.327 275.776 29.391 275.776 30.607L275.752 31.831H263.392C263.616 32.919 264.256 33.775 265.312 34.399C266.384 35.023 267.712 35.335 269.296 35.335C270.48 35.335 271.448 35.167 272.2 34.831C272.968 34.495 273.592 34.175 274.072 33.871L275.224 35.719ZM268.672 26.767C267.376 26.767 266.24 27.007 265.264 27.487C264.304 27.951 263.696 28.743 263.44 29.863H273.256V29.527C273.176 28.983 272.912 28.503 272.464 28.087C272.016 27.671 271.456 27.351 270.784 27.127C270.128 26.887 269.424 26.767 268.672 26.767Z" fill="#22255B"/>
</svg>
