<svg width="63" height="63" viewBox="0 0 63 63" fill="none" xmlns="http://www.w3.org/2000/svg">
<g clip-path="url(#clip0_68_128)">
<path d="M24.4256 40.4455C24.4256 43.0172 22.995 47.2254 19.6087 47.2254C16.2225 47.2254 14.7919 43.0172 14.7919 40.4455C14.7919 37.8738 16.2225 33.6656 19.6087 33.6656C22.995 33.6656 24.4256 37.8738 24.4256 40.4455ZM63 34.2316C63 38.1568 62.58 42.3158 60.7031 45.9211C55.7287 55.3465 42.0525 55.125 32.2612 55.125C22.3125 55.125 7.8225 55.4572 2.65125 45.9211C0.735 42.3527 0 38.1568 0 34.2316C0 29.076 1.82437 24.2033 5.44687 20.2535C4.76437 18.3094 4.43625 16.2668 4.43625 14.2488C4.43625 11.6033 5.07937 10.2744 6.3525 7.875C12.2981 7.875 16.1044 8.98242 20.6325 12.3047C24.4387 11.4557 28.35 11.0742 32.2744 11.0742C35.8181 11.0742 39.3881 11.4311 42.8269 12.2062C47.2894 8.9209 51.0956 7.875 56.9756 7.875C58.2619 10.2744 58.8919 11.6033 58.8919 14.2488C58.8919 16.2668 58.5506 18.2725 57.8812 20.1797C61.4906 24.1664 63 29.076 63 34.2316ZM54.5606 40.4455C54.5606 35.0438 51.0562 30.2818 44.9137 30.2818C42.4331 30.2818 40.0575 30.7002 37.5638 31.0201C35.6081 31.3031 33.6525 31.4139 31.6444 31.4139C29.6494 31.4139 27.6937 31.3031 25.725 31.0201C23.2706 30.7002 20.8687 30.2818 18.375 30.2818C12.2325 30.2818 8.72812 35.0438 8.72812 40.4455C8.72812 51.249 19.2806 52.9102 28.4681 52.9102H34.7944C44.0212 52.9102 54.5606 51.2613 54.5606 40.4455ZM43.7194 33.6656C40.3331 33.6656 38.9025 37.8738 38.9025 40.4455C38.9025 43.0172 40.3331 47.2254 43.7194 47.2254C47.1056 47.2254 48.5362 43.0172 48.5362 40.4455C48.5362 37.8738 47.1056 33.6656 43.7194 33.6656Z" fill="#005248"/>
</g>
<defs>
<clipPath id="clip0_68_128">
<rect width="63" height="63" fill="white"/>
</clipPath>
</defs>
</svg>
