<svg width="754" height="549" viewBox="0 0 754 549" fill="none" xmlns="http://www.w3.org/2000/svg">
<g clip-path="url(#clip0_60_59)">
<path d="M439.204 96.7823C453.335 96.7823 464.791 85.3138 464.791 71.1667C464.791 57.0196 453.335 45.5511 439.204 45.5511C425.072 45.5511 413.617 57.0196 413.617 71.1667C413.617 85.3138 425.072 96.7823 439.204 96.7823Z" fill="#C3FCF2"/>
<path d="M637.69 476.947C675.722 447.946 693.888 399.214 682.516 352.727C682.233 351.572 681.935 350.419 681.621 349.269C674.081 321.675 655.429 295.449 628.244 286.632C605.418 279.228 580.503 284.921 556.689 281.977C509.943 276.198 473.701 238.332 448.201 198.687C422.7 159.041 403.102 114.663 369.217 81.9095C313.363 27.9213 222.252 16.2976 153.002 51.4399C83.7512 86.5823 39.6394 164.549 41.5207 242.252C43.402 319.955 89.4794 394.244 156.395 433.66C180.978 448.14 209.409 458.397 237.704 454.808C262.256 451.693 284.564 438.487 309 434.566C347.419 428.401 385.593 445.791 418.822 466.056C452.051 486.32 484.149 510.339 521.909 519.734C558.575 528.856 604 502.636 637.69 476.947Z" fill="#C3FCF2"/>
<path d="M583.047 53.0716C582.213 52.5152 581.37 51.9875 580.536 51.4503C556.436 36.0198 530.605 23.4842 503.576 14.1025L497.309 100.656H457.578V1.46776C455.077 0.949702 452.557 0.460431 450.037 -6.10352e-05V100.656H402.822C376.83 100.656 351.902 90.3189 333.523 71.919C315.143 53.5192 304.818 28.5637 304.818 2.54235C302.288 3.08918 299.777 3.67431 297.267 4.29789V100.656H258.81L252.84 18.1222C225.064 28.7867 198.694 42.8111 174.318 59.8831C173.897 60.1709 173.475 60.4683 173.063 60.7561C170.945 62.2431 168.856 63.7589 166.777 65.2939V395.495H280.113L278.11 367.722L267.09 215.232H489.02L478 367.722L475.997 395.495H588.078V56.4102C586.411 55.2782 584.734 54.1653 583.047 53.0716ZM297.267 190.049H265.269L259.357 108.216H297.267V190.049ZM450.037 190.049H396.296V188.427C396.296 187.648 396.143 186.876 395.844 186.156C395.546 185.436 395.109 184.782 394.558 184.232C394.007 183.681 393.353 183.244 392.634 182.947C391.914 182.65 391.143 182.497 390.364 182.499H367.001C366.223 182.498 365.453 182.651 364.734 182.949C364.016 183.247 363.363 183.684 362.813 184.234C362.263 184.785 361.827 185.439 361.529 186.158C361.232 186.878 361.079 187.649 361.079 188.427V190.049H304.818V108.216H450.037V190.049ZM457.579 190.049V108.216H496.763L490.85 190.049H457.579Z" fill="#3F3D56"/>
<path d="M-3.05176e-05 416.64C8.32486 426.515 17.3292 435.796 26.947 444.414L727.053 445.373C736.671 436.755 745.675 427.475 754 417.6L-3.05176e-05 416.64Z" fill="#3F3D56"/>
<path d="M474.765 327.708V409.929C474.765 410.977 475.181 411.982 475.922 412.723C476.662 413.463 477.665 413.88 478.712 413.881H600.419C601.465 413.88 602.469 413.463 603.209 412.723C603.949 411.982 604.365 410.977 604.366 409.929V327.708C604.363 326.661 603.946 325.658 603.207 324.918C602.467 324.178 601.464 323.762 600.419 323.761H478.712C477.666 323.762 476.663 324.179 475.924 324.918C475.184 325.658 474.767 326.661 474.765 327.708Z" fill="#3F3D56"/>
<path d="M477.62 328.731V408.915C477.621 409.475 477.843 410.011 478.239 410.407C478.634 410.803 479.17 411.026 479.729 411.027H599.405C599.965 411.026 600.501 410.803 600.896 410.407C601.292 410.011 601.514 409.475 601.515 408.915V328.731C601.515 328.171 601.293 327.633 600.897 327.236C600.502 326.84 599.965 326.616 599.405 326.615H479.729C479.169 326.616 478.633 326.84 478.237 327.236C477.842 327.633 477.62 328.171 477.62 328.731Z" fill="#005248"/>
<path d="M472.219 425.964C472.442 426.244 472.725 426.47 473.048 426.624C473.371 426.779 473.724 426.858 474.081 426.856H604.401C604.757 426.856 605.109 426.776 605.431 426.622C605.752 426.469 606.036 426.245 606.26 425.968C606.485 425.691 606.645 425.367 606.729 425.02C606.812 424.674 606.818 424.313 606.745 423.963L604.722 414.344C604.638 413.951 604.458 413.586 604.197 413.282C603.936 412.977 603.603 412.743 603.229 412.6C602.958 412.493 602.669 412.439 602.378 412.439H476.096C475.805 412.439 475.517 412.493 475.245 412.6C474.871 412.743 474.538 412.977 474.277 413.282C474.017 413.586 473.836 413.951 473.752 414.344L471.729 423.963C471.657 424.312 471.664 424.673 471.749 425.019C471.833 425.365 471.994 425.688 472.219 425.964Z" fill="#2F2E41"/>
<path d="M597.906 416.582H600.985C601.243 416.582 601.452 416.373 601.452 416.114V414.64C601.452 414.381 601.243 414.171 600.985 414.171H597.906C597.648 414.171 597.439 414.381 597.439 414.64V416.114C597.439 416.373 597.648 416.582 597.906 416.582Z" fill="#3F3D56"/>
<path d="M589.879 416.582H592.957C593.215 416.582 593.425 416.373 593.425 416.114V414.64C593.425 414.381 593.215 414.171 592.957 414.171H589.879C589.62 414.171 589.411 414.381 589.411 414.64V416.114C589.411 416.373 589.62 416.582 589.879 416.582Z" fill="#3F3D56"/>
<path d="M581.851 416.582H584.929C585.188 416.582 585.397 416.373 585.397 416.114V414.64C585.397 414.381 585.188 414.171 584.929 414.171H581.851C581.593 414.171 581.383 414.381 581.383 414.64V416.114C581.383 416.373 581.593 416.582 581.851 416.582Z" fill="#3F3D56"/>
<path d="M573.824 416.582H576.902C577.16 416.582 577.37 416.373 577.37 416.114V414.64C577.37 414.381 577.16 414.171 576.902 414.171H573.824C573.565 414.171 573.356 414.381 573.356 414.64V416.114C573.356 416.373 573.565 416.582 573.824 416.582Z" fill="#3F3D56"/>
<path d="M565.796 416.582H568.874C569.133 416.582 569.342 416.373 569.342 416.114V414.64C569.342 414.381 569.133 414.171 568.874 414.171H565.796C565.538 414.171 565.328 414.381 565.328 414.64V416.114C565.328 416.373 565.538 416.582 565.796 416.582Z" fill="#3F3D56"/>
<path d="M557.769 416.582H560.847C561.105 416.582 561.315 416.373 561.315 416.114V414.64C561.315 414.381 561.105 414.171 560.847 414.171H557.769C557.51 414.171 557.301 414.381 557.301 414.64V416.114C557.301 416.373 557.51 416.582 557.769 416.582Z" fill="#3F3D56"/>
<path d="M549.741 416.582H552.819C553.078 416.582 553.287 416.373 553.287 416.114V414.64C553.287 414.381 553.078 414.171 552.819 414.171H549.741C549.483 414.171 549.273 414.381 549.273 414.64V416.114C549.273 416.373 549.483 416.582 549.741 416.582Z" fill="#3F3D56"/>
<path d="M541.714 416.582H544.792C545.05 416.582 545.259 416.373 545.259 416.114V414.64C545.259 414.381 545.05 414.171 544.792 414.171H541.714C541.455 414.171 541.246 414.381 541.246 414.64V416.114C541.246 416.373 541.455 416.582 541.714 416.582Z" fill="#3F3D56"/>
<path d="M533.686 416.582H536.764C537.023 416.582 537.232 416.373 537.232 416.114V414.64C537.232 414.381 537.023 414.171 536.764 414.171H533.686C533.428 414.171 533.218 414.381 533.218 414.64V416.114C533.218 416.373 533.428 416.582 533.686 416.582Z" fill="#3F3D56"/>
<path d="M525.658 416.582H528.736C528.995 416.582 529.204 416.373 529.204 416.114V414.64C529.204 414.381 528.995 414.171 528.736 414.171H525.658C525.4 414.171 525.19 414.381 525.19 414.64V416.114C525.19 416.373 525.4 416.582 525.658 416.582Z" fill="#3F3D56"/>
<path d="M517.631 416.582H520.709C520.967 416.582 521.177 416.373 521.177 416.114V414.64C521.177 414.381 520.967 414.171 520.709 414.171H517.631C517.372 414.171 517.163 414.381 517.163 414.64V416.114C517.163 416.373 517.372 416.582 517.631 416.582Z" fill="#3F3D56"/>
<path d="M509.603 416.582H512.681C512.94 416.582 513.149 416.373 513.149 416.114V414.64C513.149 414.381 512.94 414.171 512.681 414.171H509.603C509.345 414.171 509.135 414.381 509.135 414.64V416.114C509.135 416.373 509.345 416.582 509.603 416.582Z" fill="#3F3D56"/>
<path d="M501.576 416.582H504.654C504.912 416.582 505.122 416.373 505.122 416.114V414.64C505.122 414.381 504.912 414.171 504.654 414.171H501.576C501.317 414.171 501.108 414.381 501.108 414.64V416.114C501.108 416.373 501.317 416.582 501.576 416.582Z" fill="#3F3D56"/>
<path d="M493.548 416.582H496.626C496.885 416.582 497.094 416.373 497.094 416.114V414.64C497.094 414.381 496.885 414.171 496.626 414.171H493.548C493.29 414.171 493.08 414.381 493.08 414.64V416.114C493.08 416.373 493.29 416.582 493.548 416.582Z" fill="#3F3D56"/>
<path d="M485.521 416.582H488.599C488.857 416.582 489.067 416.373 489.067 416.114V414.64C489.067 414.381 488.857 414.171 488.599 414.171H485.521C485.262 414.171 485.053 414.381 485.053 414.64V416.114C485.053 416.373 485.262 416.582 485.521 416.582Z" fill="#3F3D56"/>
<path d="M477.493 416.582H480.571C480.83 416.582 481.039 416.373 481.039 416.114V414.64C481.039 414.381 480.83 414.171 480.571 414.171H477.493C477.235 414.171 477.025 414.381 477.025 414.64V416.114C477.025 416.373 477.235 416.582 477.493 416.582Z" fill="#3F3D56"/>
<path d="M598.001 420.601H601.079C601.338 420.601 601.547 420.391 601.547 420.132V418.658C601.547 418.399 601.338 418.19 601.079 418.19H598.001C597.743 418.19 597.533 418.399 597.533 418.658V420.132C597.533 420.391 597.743 420.601 598.001 420.601Z" fill="#3F3D56"/>
<path d="M589.974 420.601H593.052C593.31 420.601 593.52 420.391 593.52 420.132V418.658C593.52 418.399 593.31 418.19 593.052 418.19H589.974C589.715 418.19 589.506 418.399 589.506 418.658V420.132C589.506 420.391 589.715 420.601 589.974 420.601Z" fill="#3F3D56"/>
<path d="M581.946 420.601H585.024C585.283 420.601 585.492 420.391 585.492 420.132V418.658C585.492 418.399 585.283 418.19 585.024 418.19H581.946C581.688 418.19 581.478 418.399 581.478 418.658V420.132C581.478 420.391 581.688 420.601 581.946 420.601Z" fill="#3F3D56"/>
<path d="M573.919 420.601H576.997C577.255 420.601 577.465 420.391 577.465 420.132V418.658C577.465 418.399 577.255 418.19 576.997 418.19H573.919C573.66 418.19 573.451 418.399 573.451 418.658V420.132C573.451 420.391 573.66 420.601 573.919 420.601Z" fill="#3F3D56"/>
<path d="M565.891 420.601H568.969C569.228 420.601 569.437 420.391 569.437 420.132V418.658C569.437 418.399 569.228 418.19 568.969 418.19H565.891C565.633 418.19 565.423 418.399 565.423 418.658V420.132C565.423 420.391 565.633 420.601 565.891 420.601Z" fill="#3F3D56"/>
<path d="M557.863 420.601H560.942C561.2 420.601 561.409 420.391 561.409 420.132V418.658C561.409 418.399 561.2 418.19 560.942 418.19H557.863C557.605 418.19 557.396 418.399 557.396 418.658V420.132C557.396 420.391 557.605 420.601 557.863 420.601Z" fill="#3F3D56"/>
<path d="M549.836 420.601H552.914C553.172 420.601 553.382 420.391 553.382 420.132V418.658C553.382 418.399 553.172 418.19 552.914 418.19H549.836C549.578 418.19 549.368 418.399 549.368 418.658V420.132C549.368 420.391 549.578 420.601 549.836 420.601Z" fill="#3F3D56"/>
<path d="M541.808 420.601H544.886C545.145 420.601 545.354 420.391 545.354 420.132V418.658C545.354 418.399 545.145 418.19 544.886 418.19H541.808C541.55 418.19 541.341 418.399 541.341 418.658V420.132C541.341 420.391 541.55 420.601 541.808 420.601Z" fill="#3F3D56"/>
<path d="M533.781 420.601H536.859C537.117 420.601 537.327 420.391 537.327 420.132V418.658C537.327 418.399 537.117 418.19 536.859 418.19H533.781C533.522 418.19 533.313 418.399 533.313 418.658V420.132C533.313 420.391 533.522 420.601 533.781 420.601Z" fill="#3F3D56"/>
<path d="M525.753 420.601H528.831C529.09 420.601 529.299 420.391 529.299 420.132V418.658C529.299 418.399 529.09 418.19 528.831 418.19H525.753C525.495 418.19 525.285 418.399 525.285 418.658V420.132C525.285 420.391 525.495 420.601 525.753 420.601Z" fill="#3F3D56"/>
<path d="M517.726 420.601H520.804C521.062 420.601 521.271 420.391 521.271 420.132V418.658C521.271 418.399 521.062 418.19 520.804 418.19H517.726C517.467 418.19 517.258 418.399 517.258 418.658V420.132C517.258 420.391 517.467 420.601 517.726 420.601Z" fill="#3F3D56"/>
<path d="M509.698 420.601H512.776C513.035 420.601 513.244 420.391 513.244 420.132V418.658C513.244 418.399 513.035 418.19 512.776 418.19H509.698C509.44 418.19 509.23 418.399 509.23 418.658V420.132C509.23 420.391 509.44 420.601 509.698 420.601Z" fill="#3F3D56"/>
<path d="M501.671 420.601H504.749C505.007 420.601 505.217 420.391 505.217 420.132V418.658C505.217 418.399 505.007 418.19 504.749 418.19H501.671C501.412 418.19 501.203 418.399 501.203 418.658V420.132C501.203 420.391 501.412 420.601 501.671 420.601Z" fill="#3F3D56"/>
<path d="M493.643 420.601H496.721C496.98 420.601 497.189 420.391 497.189 420.132V418.658C497.189 418.399 496.98 418.19 496.721 418.19H493.643C493.385 418.19 493.175 418.399 493.175 418.658V420.132C493.175 420.391 493.385 420.601 493.643 420.601Z" fill="#3F3D56"/>
<path d="M485.615 420.601H488.694C488.952 420.601 489.161 420.391 489.161 420.132V418.658C489.161 418.399 488.952 418.19 488.694 418.19H485.615C485.357 418.19 485.148 418.399 485.148 418.658V420.132C485.148 420.391 485.357 420.601 485.615 420.601Z" fill="#3F3D56"/>
<path d="M477.588 420.601H480.666C480.924 420.601 481.134 420.391 481.134 420.132V418.658C481.134 418.399 480.924 418.19 480.666 418.19H477.588C477.33 418.19 477.12 418.399 477.12 418.658V420.132C477.12 420.391 477.33 420.601 477.588 420.601Z" fill="#3F3D56"/>
<path d="M531.373 425.423H562.547C562.806 425.423 563.015 425.213 563.015 424.954V423.48C563.015 423.221 562.806 423.012 562.547 423.012H531.373C531.114 423.012 530.905 423.221 530.905 423.48V424.954C530.905 425.213 531.114 425.423 531.373 425.423Z" fill="#3F3D56"/>
<path d="M498.344 344.157H495.619C494.793 344.157 494.123 344.828 494.123 345.655C494.123 346.482 494.793 347.153 495.619 347.153H498.344C499.17 347.153 499.84 346.482 499.84 345.655C499.84 344.828 499.17 344.157 498.344 344.157Z" fill="white"/>
<path d="M529.51 344.157H526.785C525.959 344.157 525.289 344.828 525.289 345.655C525.289 346.482 525.959 347.153 526.785 347.153H529.51C530.337 347.153 531.006 346.482 531.006 345.655C531.006 344.828 530.337 344.157 529.51 344.157Z" fill="white"/>
<path d="M538.341 344.157H535.616C534.79 344.157 534.12 344.828 534.12 345.655C534.12 346.482 534.79 347.153 535.616 347.153H538.341C539.167 347.153 539.837 346.482 539.837 345.655C539.837 344.828 539.167 344.157 538.341 344.157Z" fill="white"/>
<path d="M521.033 343.908H504.096C503.27 343.908 502.6 344.578 502.6 345.405C502.6 346.232 503.27 346.903 504.096 346.903H521.033C521.859 346.903 522.529 346.232 522.529 345.405C522.529 344.578 521.859 343.908 521.033 343.908Z" fill="white"/>
<path d="M562.588 343.908H545.652C544.825 343.908 544.156 344.578 544.156 345.405C544.156 346.232 544.825 346.903 545.652 346.903H562.588C563.414 346.903 564.084 346.232 564.084 345.405C564.084 344.578 563.414 343.908 562.588 343.908Z" fill="white"/>
<path d="M506.655 350.918H503.93C503.104 350.918 502.434 351.588 502.434 352.415C502.434 353.242 503.104 353.913 503.93 353.913H506.655C507.481 353.913 508.151 353.242 508.151 352.415C508.151 351.588 507.481 350.918 506.655 350.918Z" fill="white"/>
<path d="M537.822 350.918H535.096C534.27 350.918 533.6 351.588 533.6 352.415C533.6 353.242 534.27 353.913 535.096 353.913H537.822C538.648 353.913 539.318 353.242 539.318 352.415C539.318 351.588 538.648 350.918 537.822 350.918Z" fill="white"/>
<path d="M546.652 350.918H543.927C543.101 350.918 542.431 351.588 542.431 352.415C542.431 353.242 543.101 353.913 543.927 353.913H546.652C547.478 353.913 548.148 353.242 548.148 352.415C548.148 351.588 547.478 350.918 546.652 350.918Z" fill="white"/>
<path d="M529.344 350.668H512.407C511.581 350.668 510.911 351.338 510.911 352.165C510.911 352.993 511.581 353.663 512.407 353.663H529.344C530.17 353.663 530.84 352.993 530.84 352.165C530.84 351.338 530.17 350.668 529.344 350.668Z" fill="white"/>
<path d="M570.899 350.668H553.963C553.136 350.668 552.467 351.338 552.467 352.165C552.467 352.993 553.136 353.663 553.963 353.663H570.899C571.725 353.663 572.395 352.993 572.395 352.165C572.395 351.338 571.725 350.668 570.899 350.668Z" fill="white"/>
<path d="M514.966 357.678H512.241C511.415 357.678 510.745 358.348 510.745 359.175C510.745 360.003 511.415 360.673 512.241 360.673H514.966C515.792 360.673 516.462 360.003 516.462 359.175C516.462 358.348 515.792 357.678 514.966 357.678Z" fill="white"/>
<path d="M546.132 357.678H543.407C542.581 357.678 541.911 358.348 541.911 359.175C541.911 360.003 542.581 360.673 543.407 360.673H546.132C546.959 360.673 547.628 360.003 547.628 359.175C547.628 358.348 546.959 357.678 546.132 357.678Z" fill="white"/>
<path d="M554.963 357.678H552.238C551.412 357.678 550.742 358.348 550.742 359.175C550.742 360.003 551.412 360.673 552.238 360.673H554.963C555.789 360.673 556.459 360.003 556.459 359.175C556.459 358.348 555.789 357.678 554.963 357.678Z" fill="white"/>
<path d="M537.655 357.428H520.718C519.892 357.428 519.222 358.099 519.222 358.926C519.222 359.753 519.892 360.423 520.718 360.423H537.655C538.481 360.423 539.151 359.753 539.151 358.926C539.151 358.099 538.481 357.428 537.655 357.428Z" fill="white"/>
<path d="M579.21 357.428H562.274C561.447 357.428 560.778 358.099 560.778 358.926C560.778 359.753 561.447 360.423 562.274 360.423H579.21C580.037 360.423 580.706 359.753 580.706 358.926C580.706 358.099 580.037 357.428 579.21 357.428Z" fill="white"/>
<path d="M523.277 364.438H520.552C519.726 364.438 519.056 365.109 519.056 365.936C519.056 366.763 519.726 367.433 520.552 367.433H523.277C524.103 367.433 524.773 366.763 524.773 365.936C524.773 365.109 524.103 364.438 523.277 364.438Z" fill="white"/>
<path d="M554.444 364.438H551.719C550.892 364.438 550.223 365.109 550.223 365.936C550.223 366.763 550.892 367.433 551.719 367.433H554.444C555.27 367.433 555.94 366.763 555.94 365.936C555.94 365.109 555.27 364.438 554.444 364.438Z" fill="white"/>
<path d="M563.274 364.438H560.549C559.723 364.438 559.053 365.109 559.053 365.936C559.053 366.763 559.723 367.433 560.549 367.433H563.274C564.1 367.433 564.77 366.763 564.77 365.936C564.77 365.109 564.1 364.438 563.274 364.438Z" fill="white"/>
<path d="M545.966 364.188H529.029C528.203 364.188 527.534 364.859 527.534 365.686C527.534 366.513 528.203 367.184 529.029 367.184H545.966C546.792 367.184 547.462 366.513 547.462 365.686C547.462 364.859 546.792 364.188 545.966 364.188Z" fill="white"/>
<path d="M529.51 391.32H526.785C525.959 391.32 525.289 391.99 525.289 392.817C525.289 393.644 525.959 394.315 526.785 394.315H529.51C530.337 394.315 531.006 393.644 531.006 392.817C531.006 391.99 530.337 391.32 529.51 391.32Z" fill="white"/>
<path d="M538.341 391.32H535.616C534.79 391.32 534.12 391.99 534.12 392.817C534.12 393.644 534.79 394.315 535.616 394.315H538.341C539.167 394.315 539.837 393.644 539.837 392.817C539.837 391.99 539.167 391.32 538.341 391.32Z" fill="white"/>
<path d="M562.588 391.569H545.652C544.825 391.569 544.156 392.24 544.156 393.067C544.156 393.894 544.825 394.565 545.652 394.565H562.588C563.414 394.565 564.084 393.894 564.084 393.067C564.084 392.24 563.414 391.569 562.588 391.569Z" fill="white"/>
<path d="M498.344 391.32H495.619C494.793 391.32 494.123 391.99 494.123 392.817C494.123 393.644 494.793 394.315 495.619 394.315H498.344C499.17 394.315 499.84 393.644 499.84 392.817C499.84 391.99 499.17 391.32 498.344 391.32Z" fill="white"/>
<path d="M521.033 391.569H504.096C503.27 391.569 502.6 392.24 502.6 393.067C502.6 393.894 503.27 394.565 504.096 394.565H521.033C521.859 394.565 522.529 393.894 522.529 393.067C522.529 392.24 521.859 391.569 521.033 391.569Z" fill="white"/>
<path d="M506.655 384.559H503.93C503.104 384.559 502.434 385.23 502.434 386.057C502.434 386.884 503.104 387.555 503.93 387.555H506.655C507.481 387.555 508.151 386.884 508.151 386.057C508.151 385.23 507.481 384.559 506.655 384.559Z" fill="white"/>
<path d="M537.822 384.559H535.096C534.27 384.559 533.6 385.23 533.6 386.057C533.6 386.884 534.27 387.555 535.096 387.555H537.822C538.648 387.555 539.318 386.884 539.318 386.057C539.318 385.23 538.648 384.559 537.822 384.559Z" fill="white"/>
<path d="M546.652 384.559H543.927C543.101 384.559 542.431 385.23 542.431 386.057C542.431 386.884 543.101 387.555 543.927 387.555H546.652C547.478 387.555 548.148 386.884 548.148 386.057C548.148 385.23 547.478 384.559 546.652 384.559Z" fill="white"/>
<path d="M529.344 384.809H512.407C511.581 384.809 510.911 385.48 510.911 386.307C510.911 387.134 511.581 387.804 512.407 387.804H529.344C530.17 387.804 530.84 387.134 530.84 386.307C530.84 385.48 530.17 384.809 529.344 384.809Z" fill="white"/>
<path d="M514.966 377.799H512.241C511.415 377.799 510.745 378.47 510.745 379.297C510.745 380.124 511.415 380.794 512.241 380.794H514.966C515.792 380.794 516.462 380.124 516.462 379.297C516.462 378.47 515.792 377.799 514.966 377.799Z" fill="white"/>
<path d="M546.132 377.799H543.407C542.581 377.799 541.911 378.47 541.911 379.297C541.911 380.124 542.581 380.794 543.407 380.794H546.132C546.959 380.794 547.628 380.124 547.628 379.297C547.628 378.47 546.959 377.799 546.132 377.799Z" fill="white"/>
<path d="M554.963 377.799H552.238C551.412 377.799 550.742 378.47 550.742 379.297C550.742 380.124 551.412 380.794 552.238 380.794H554.963C555.789 380.794 556.459 380.124 556.459 379.297C556.459 378.47 555.789 377.799 554.963 377.799Z" fill="white"/>
<path d="M537.655 378.049H520.718C519.892 378.049 519.222 378.719 519.222 379.547C519.222 380.374 519.892 381.044 520.718 381.044H537.655C538.481 381.044 539.151 380.374 539.151 379.547C539.151 378.719 538.481 378.049 537.655 378.049Z" fill="white"/>
<path d="M523.277 371.039H520.552C519.726 371.039 519.056 371.709 519.056 372.537C519.056 373.364 519.726 374.034 520.552 374.034H523.277C524.103 374.034 524.773 373.364 524.773 372.537C524.773 371.709 524.103 371.039 523.277 371.039Z" fill="white"/>
<path d="M554.444 371.039H551.719C550.892 371.039 550.223 371.709 550.223 372.537C550.223 373.364 550.892 374.034 551.719 374.034H554.444C555.27 374.034 555.94 373.364 555.94 372.537C555.94 371.709 555.27 371.039 554.444 371.039Z" fill="white"/>
<path d="M563.274 371.039H560.549C559.723 371.039 559.053 371.709 559.053 372.537C559.053 373.364 559.723 374.034 560.549 374.034H563.274C564.1 374.034 564.77 373.364 564.77 372.537C564.77 371.709 564.1 371.039 563.274 371.039Z" fill="white"/>
<path d="M545.966 371.289H529.029C528.203 371.289 527.534 371.959 527.534 372.786C527.534 373.613 528.203 374.284 529.029 374.284H545.966C546.792 374.284 547.462 373.613 547.462 372.786C547.462 371.959 546.792 371.289 545.966 371.289Z" fill="white"/>
<path d="M483.856 470.547L471.063 450.303L511.218 418.258L527.791 399.876C529.945 397.488 532.686 395.707 535.742 394.712C538.798 393.717 542.062 393.542 545.206 394.205C548.351 394.868 551.267 396.346 553.662 398.49C556.058 400.635 557.849 403.371 558.857 406.426C560.351 410.953 560.03 415.884 557.961 420.178C555.893 424.472 552.238 427.794 547.77 429.442L521.562 439.108L483.856 470.547Z" fill="#FFB6B6"/>
<path d="M183.694 323.765V422.157H252.547V323.765C252.548 323.057 252.323 322.368 251.904 321.798C251.484 321.228 250.894 320.808 250.218 320.599C249.9 320.494 249.567 320.442 249.231 320.446H187.019C186.583 320.445 186.151 320.53 185.748 320.696C185.345 320.863 184.978 321.107 184.67 321.415C184.361 321.724 184.116 322.09 183.948 322.493C183.781 322.896 183.695 323.328 183.694 323.765ZM210.565 357.573C210.583 355.633 211.365 353.779 212.741 352.414C214.118 351.048 215.977 350.282 217.915 350.282C219.852 350.282 221.711 351.048 223.088 352.414C224.464 353.779 225.247 355.633 225.265 357.573V368.989C225.255 370.934 224.476 372.796 223.099 374.168C221.721 375.54 219.857 376.31 217.915 376.31C215.972 376.31 214.108 375.54 212.731 374.168C211.353 372.796 210.574 370.934 210.565 368.989V357.573Z" fill="#2F2E41"/>
<path d="M183.483 419.01V428.498C183.485 428.99 183.68 429.461 184.026 429.809C184.372 430.157 184.842 430.355 185.333 430.359H250.909C251.4 430.357 251.87 430.16 252.217 429.811C252.564 429.462 252.758 428.99 252.758 428.498V419.01H183.483Z" fill="#3F3D56"/>
<path d="M75.3789 175.525V355.174C75.3807 357.464 76.29 359.659 77.907 361.278C79.524 362.896 81.7167 363.807 84.0035 363.808H349.928C352.215 363.807 354.408 362.896 356.025 361.278C357.642 359.659 358.551 357.464 358.553 355.174V175.525C358.548 173.238 357.637 171.046 356.02 169.429C354.404 167.813 352.213 166.903 349.928 166.9H84.0035C81.7187 166.903 79.5281 167.813 77.9116 169.429C76.2951 171.046 75.3844 173.238 75.3789 175.525Z" fill="#3F3D56"/>
<path d="M81.6174 177.76V352.958C81.6195 354.181 82.1058 355.354 82.9697 356.219C83.8337 357.084 85.0049 357.571 86.2267 357.573H347.715C348.937 357.571 350.108 357.084 350.972 356.219C351.836 355.354 352.322 354.181 352.324 352.958V177.76C352.324 176.535 351.839 175.361 350.975 174.494C350.11 173.627 348.938 173.139 347.715 173.136H86.2267C85.0034 173.139 83.8311 173.627 82.967 174.494C82.1029 175.361 81.6175 176.536 81.6174 177.76Z" fill="#C3FCF2"/>
<path d="M130.145 429.716C130.411 430.05 130.75 430.32 131.135 430.504C131.52 430.689 131.941 430.783 132.368 430.781H287.937C288.362 430.781 288.782 430.685 289.166 430.502C289.55 430.318 289.888 430.052 290.156 429.721C290.424 429.39 290.615 429.004 290.716 428.59C290.816 428.176 290.822 427.744 290.735 427.328L288.32 415.844C288.22 415.376 288.004 414.94 287.693 414.576C287.382 414.213 286.985 413.933 286.538 413.762C286.214 413.635 285.869 413.57 285.522 413.57H134.774C134.426 413.57 134.081 413.635 133.758 413.762C133.311 413.933 132.914 414.213 132.602 414.576C132.291 414.94 132.075 415.376 131.975 415.844L129.561 427.328C129.475 427.744 129.482 428.175 129.584 428.588C129.685 429.001 129.876 429.387 130.145 429.716Z" fill="#2F2E41"/>
<path d="M339.229 197.27H94.5553C94.301 197.265 94.059 197.16 93.8811 196.978C93.7033 196.796 93.6037 196.551 93.6037 196.296C93.6037 196.042 93.7033 195.797 93.8811 195.615C94.059 195.433 94.301 195.328 94.5553 195.322H339.229C339.483 195.328 339.725 195.433 339.903 195.615C340.081 195.797 340.18 196.042 340.18 196.296C340.18 196.551 340.081 196.796 339.903 196.978C339.725 197.16 339.483 197.265 339.229 197.27Z" fill="#3F3D56"/>
<path d="M111.211 190.349C114.36 190.349 116.913 187.736 116.913 184.513C116.913 181.29 114.36 178.677 111.211 178.677C108.061 178.677 105.508 181.29 105.508 184.513C105.508 187.736 108.061 190.349 111.211 190.349Z" fill="#3F3D56"/>
<path d="M130.909 190.349C134.058 190.349 136.611 187.736 136.611 184.513C136.611 181.29 134.058 178.677 130.909 178.677C127.76 178.677 125.207 181.29 125.207 184.513C125.207 187.736 127.76 190.349 130.909 190.349Z" fill="#3F3D56"/>
<path d="M150.608 190.349C153.757 190.349 156.31 187.736 156.31 184.513C156.31 181.29 153.757 178.677 150.608 178.677C147.458 178.677 144.906 181.29 144.906 184.513C144.906 187.736 147.458 190.349 150.608 190.349Z" fill="#3F3D56"/>
<path d="M327.367 180.12H313.376C313.099 180.127 312.836 180.241 312.643 180.439C312.449 180.637 312.341 180.903 312.341 181.18C312.341 181.457 312.449 181.723 312.643 181.921C312.836 182.12 313.099 182.234 313.376 182.24H327.367C327.645 182.237 327.911 182.123 328.106 181.925C328.301 181.726 328.411 181.459 328.411 181.18C328.411 180.902 328.301 180.634 328.106 180.436C327.911 180.238 327.645 180.124 327.367 180.12Z" fill="#3F3D56"/>
<path d="M327.367 184.102H313.376C313.099 184.108 312.836 184.222 312.642 184.42C312.448 184.618 312.34 184.885 312.34 185.162C312.34 185.439 312.448 185.705 312.642 185.903C312.836 186.101 313.099 186.216 313.376 186.222H327.367C327.645 186.218 327.911 186.105 328.107 185.907C328.303 185.708 328.413 185.441 328.413 185.162C328.413 184.883 328.303 184.615 328.107 184.417C327.911 184.218 327.645 184.105 327.367 184.102Z" fill="#3F3D56"/>
<path d="M327.367 188.083H313.376C313.099 188.089 312.836 188.204 312.643 188.402C312.449 188.6 312.341 188.866 312.341 189.143C312.341 189.42 312.449 189.686 312.643 189.884C312.836 190.082 313.099 190.197 313.376 190.203H327.367C327.645 190.199 327.911 190.086 328.106 189.887C328.301 189.689 328.411 189.422 328.411 189.143C328.411 188.864 328.301 188.597 328.106 188.399C327.911 188.2 327.645 188.087 327.367 188.083Z" fill="#3F3D56"/>
<path d="M664.664 423.174C665.087 424.405 665.887 425.47 666.952 426.216C668.017 426.963 669.29 427.352 670.59 427.329L695.976 426.675C697.285 426.649 698.551 426.2 699.584 425.395C700.617 424.59 701.362 423.471 701.708 422.207L705.3 383.749C706.575 384.327 707.962 384.613 709.361 384.585C710.577 384.554 711.774 384.284 712.886 383.79C713.997 383.296 715 382.588 715.838 381.706C716.676 380.824 717.332 379.786 717.769 378.65C718.206 377.514 718.415 376.303 718.384 375.086C718.354 373.869 718.084 372.671 717.591 371.558C717.098 370.446 716.39 369.441 715.509 368.602C714.628 367.764 713.591 367.107 712.456 366.669C711.322 366.232 710.112 366.023 708.897 366.053C708.338 366.051 707.78 366.109 707.233 366.226C706.638 365.582 705.915 365.07 705.111 364.722C704.307 364.375 703.438 364.2 702.562 364.209L663.512 365.218C663.188 365.23 662.865 365.27 662.548 365.338C661.692 365.498 660.88 365.84 660.166 366.34C659.453 366.84 658.855 367.488 658.412 368.239C657.97 368.99 657.693 369.828 657.601 370.695C657.509 371.562 657.603 372.439 657.878 373.267L664.664 423.174ZM706.037 381.138L708.593 371.973C708.884 370.915 708.891 369.798 708.613 368.736C708.737 368.736 708.846 368.677 708.97 368.677C710.723 368.64 712.419 369.301 713.686 370.515C714.952 371.728 715.687 373.395 715.728 375.15C715.769 376.904 715.113 378.604 713.904 379.875C712.696 381.147 711.033 381.886 709.28 381.932C708.147 381.968 707.026 381.693 706.037 381.138Z" fill="#2F2E41"/>
<path d="M662.548 365.338C663.38 370.1 672.734 373.448 683.981 372.866C694.324 372.389 702.78 368.754 704.33 364.445C703.756 364.275 703.16 364.195 702.562 364.209L663.512 365.218C663.188 365.23 662.865 365.27 662.548 365.338Z" fill="#3F3D56"/>
<path d="M686.042 402.041C686.094 402.028 686.143 402.006 686.187 401.977L691.7 398.365C691.767 398.321 691.822 398.262 691.86 398.192C691.897 398.122 691.917 398.043 691.917 397.964C691.917 397.884 691.898 397.806 691.86 397.736C691.822 397.666 691.767 397.606 691.701 397.562L685.97 393.805C685.918 393.77 685.859 393.746 685.797 393.734C685.735 393.722 685.671 393.722 685.609 393.735C685.548 393.748 685.489 393.773 685.437 393.808C685.385 393.844 685.34 393.889 685.305 393.942C685.271 393.995 685.247 394.054 685.235 394.116C685.224 394.178 685.224 394.242 685.237 394.303C685.25 394.365 685.275 394.424 685.311 394.476C685.347 394.528 685.392 394.572 685.445 394.607L690.563 397.963L685.663 401.175C685.568 401.237 685.498 401.331 685.466 401.439C685.433 401.548 685.441 401.665 685.486 401.769C685.532 401.873 685.613 401.957 685.714 402.007C685.816 402.057 685.932 402.069 686.042 402.041H686.042Z" fill="#005248"/>
<path d="M677.335 402.443C677.427 402.42 677.511 402.369 677.574 402.298C677.638 402.227 677.679 402.138 677.692 402.043C677.705 401.949 677.689 401.852 677.647 401.766C677.605 401.681 677.538 401.61 677.455 401.562L672.374 398.645L677.285 394.993C677.336 394.955 677.378 394.908 677.411 394.854C677.443 394.8 677.464 394.74 677.474 394.678C677.483 394.616 677.48 394.552 677.464 394.491C677.449 394.43 677.422 394.373 677.384 394.322C677.347 394.272 677.3 394.229 677.246 394.197C677.192 394.164 677.132 394.143 677.07 394.134C677.007 394.125 676.944 394.128 676.883 394.143C676.822 394.158 676.765 394.186 676.714 394.223L671.215 398.313C671.151 398.36 671.1 398.423 671.066 398.495C671.033 398.567 671.018 398.646 671.022 398.726C671.027 398.805 671.051 398.882 671.093 398.95C671.135 399.018 671.193 399.074 671.262 399.113L676.979 402.394C677.086 402.456 677.214 402.474 677.335 402.443Z" fill="#005248"/>
<path d="M685.494 405.207C685.54 405.195 685.585 405.177 685.625 405.151C685.679 405.119 685.726 405.076 685.763 405.025C685.8 404.974 685.827 404.916 685.842 404.855C685.857 404.794 685.86 404.73 685.85 404.668C685.84 404.606 685.819 404.546 685.786 404.492L677.971 391.629C677.904 391.52 677.798 391.443 677.674 391.413C677.551 391.383 677.421 391.403 677.312 391.469C677.204 391.536 677.126 391.642 677.096 391.766C677.066 391.889 677.086 392.019 677.152 392.128L684.967 404.992C685.02 405.079 685.1 405.147 685.195 405.186C685.29 405.225 685.395 405.232 685.494 405.207Z" fill="#005248"/>
<path d="M246.126 250.227H203.779C202.051 250.227 200.651 251.629 200.651 253.358V257.5C200.651 259.229 202.051 260.632 203.779 260.632H246.126C247.854 260.632 249.254 259.229 249.254 257.5V253.358C249.254 251.629 247.854 250.227 246.126 250.227Z" fill="#005248"/>
<path d="M270.81 271.036H179.095C177.367 271.036 175.967 272.438 175.967 274.168V278.31C175.967 280.039 177.367 281.441 179.095 281.441H270.81C272.538 281.441 273.938 280.039 273.938 278.31V274.168C273.938 272.438 272.538 271.036 270.81 271.036Z" fill="#EEA619"/>
<path d="M270.81 291.846H179.095C177.367 291.846 175.967 293.248 175.967 294.978V299.12C175.967 300.849 177.367 302.251 179.095 302.251H270.81C272.538 302.251 273.938 300.849 273.938 299.12V294.978C273.938 293.248 272.538 291.846 270.81 291.846Z" fill="#EEA619"/>
<path d="M278.585 361.53L278.793 362.187L278.804 362.209L285.057 381.24L292.25 403.172L305.783 444.387L305.915 450.79V450.812L306.92 502.314L304.133 509.296L307.27 520.744C307.27 520.744 305.827 503.44 298.087 513.377C293.704 519.024 288.577 524.803 284.368 530.22C290.501 532.704 296.732 534.952 303.061 536.962C304.428 537.399 305.805 537.815 307.183 538.231C307.478 538.319 307.773 538.406 308.068 538.494C329.05 544.706 350.741 548.196 372.61 548.88C373.747 548.913 374.862 548.934 375.944 548.956C376.327 548.967 376.698 548.978 377.07 548.978C378.294 548.989 379.508 549 380.732 549C383.203 549 385.662 548.964 388.111 548.891C406.235 548.379 424.254 545.94 441.863 541.613C441.743 534.335 441.415 525.832 440.945 516.748C440.726 512.294 435.818 507.467 435.522 502.805C435.315 499.303 439.72 496.009 439.491 492.452C438.004 470.553 436.146 478.96 434.768 463.452C434.626 461.931 434.495 460.475 434.375 459.085C433.489 449.126 432.877 442.899 432.877 442.899L438.758 405.788L447.996 347.522L447.285 346.351L446.487 345.957L397.764 321.814L395.118 315.029C394.348 313.074 393.01 311.395 391.278 310.207C389.546 309.019 387.499 308.377 385.4 308.364L353.304 308.233C351.638 308.225 349.995 308.615 348.51 309.371C347.025 310.127 345.742 311.226 344.766 312.577L336.076 324.627L278.585 361.53Z" fill="#3F3D56"/>
<path d="M313.184 435.216L305.915 450.79L300.952 461.427L292.414 506.178L288.139 510.719L284.477 494.641L246.148 503.161C244.891 496.168 245.811 503.398 245.035 495.726C245.254 495.507 245.483 495.288 245.713 495.069C246.325 494.5 246.839 493.964 246.828 493.45C246.391 466.987 247.703 421.952 258.656 394.669C260.372 390.214 262.634 385.99 265.39 382.094C265.609 381.798 265.817 381.503 266.024 381.207C271.075 374.127 274.267 367.155 278.793 362.198V362.187C278.821 362.164 278.847 362.138 278.869 362.11C278.886 362.102 278.901 362.091 278.913 362.077L310.003 345.574L311.337 383.09L312.288 410.056L313.184 435.216Z" fill="#3F3D56"/>
<path d="M425.289 439.64L434.37 459.09L437.54 465.864L446.075 510.61L450.335 515.141L454.006 499.067L455.731 498.713L486.835 492.264L495.901 521.089C497.945 517.68 498.75 513.67 498.18 509.736C497.611 505.802 495.702 502.185 492.776 499.498C492.157 498.937 491.641 498.391 491.656 497.874C492.172 466.75 490.27 409.917 473.096 386.526C467.642 379.102 464.369 371.709 459.608 366.543C459.593 366.529 459.593 366.514 459.578 366.514L447.991 347.52L447.284 346.355L446.488 345.956L425.289 439.64Z" fill="#3F3D56"/>
<path d="M370.279 299.088C393.861 299.088 412.979 279.95 412.979 256.341C412.979 232.732 393.861 213.594 370.279 213.594C346.697 213.594 327.579 232.732 327.579 256.341C327.579 279.95 346.697 299.088 370.279 299.088Z" fill="#FFB6B6"/>
<path d="M427.993 226.482C427.662 226.128 427.263 225.845 426.82 225.648C426.377 225.452 425.899 225.348 425.415 225.34L426.057 223.556C426.266 222.994 426.323 222.386 426.221 221.795C426.119 221.204 425.861 220.651 425.475 220.192C425.089 219.733 424.588 219.385 424.023 219.184C423.459 218.983 422.851 218.936 422.262 219.047L419.924 219.498L420.144 217.934C420.229 217.352 420.16 216.757 419.946 216.21C419.731 215.662 419.378 215.179 418.921 214.809C418.463 214.439 417.918 214.195 417.338 214.101C416.757 214.006 416.163 214.064 415.612 214.269C415.11 214.467 414.571 214.55 414.034 214.511C413.497 214.473 412.975 214.315 412.507 214.049C412.037 213.791 411.628 213.433 411.311 213C410.993 212.568 410.773 212.071 410.667 211.545L409.852 207.612L409.766 207.4C405.799 200.781 398.171 195.965 388.837 194.2C380.529 192.617 372.01 193.423 363.797 194.181C360.539 194.487 356.859 194.833 353.792 196.713C351.186 198.325 348.982 201.548 349.432 204.801C341.335 202.316 332.653 207.276 328.35 213.531C323.252 220.975 322.418 230.3 322.284 237.591C321.92 254.841 325.475 268.953 332.825 279.544C333.362 280.312 333.496 281.914 334.56 282.451L334.339 282.096C335.527 282.691 336.735 283.65 336.285 284.677C334.991 287.632 343.587 294.165 349.643 296.323C360.692 300.266 375.383 299.931 385.713 298.511L386.077 296.064C389.805 295.556 392.431 294.587 393.168 293.071C394.472 291.958 395.583 290.961 396.551 290.04L396.561 290.03C396.58 290.011 396.618 289.982 396.637 289.963C401.304 285.483 402.387 282.931 402.876 279.045C403.345 275.237 402.512 271.371 401.659 267.888C419.617 270.67 394.587 248.739 411.318 244.499C411.51 244.44 411.706 244.392 411.903 244.355C412.392 244.24 412.88 244.125 413.35 243.99C415.613 243.375 417.781 242.449 419.79 241.237C424.466 238.388 426.009 234.608 428.424 230.348C428.772 229.742 428.918 229.04 428.841 228.345C428.763 227.649 428.466 226.997 427.993 226.482Z" fill="#2F2E41"/>
<path d="M521.301 442.683C521.292 444.362 521.272 446.712 521.196 449.619C521.186 450.022 521.177 450.435 521.167 450.857C521.042 456.2 520.918 460.681 520.717 465.66C520.707 466.005 520.697 466.341 520.678 466.686C520.41 473.632 519.988 481.719 519.26 494.527C517.909 518.185 515.551 497.779 513.184 506.077C513.069 506.49 512.945 506.979 512.83 507.555C512.471 509.643 511.867 511.682 511.028 513.628C509.773 514.376 508.479 515.095 507.205 515.815C503.573 517.839 499.883 519.787 496.165 521.638C494.076 522.674 491.978 523.691 489.869 524.67C489.534 524.823 489.208 524.977 488.882 525.121C478.086 530.12 466.96 534.37 455.582 537.842C453.359 538.513 451.145 539.166 448.903 539.77C446.564 540.422 444.226 541.037 441.859 541.612C424.251 545.94 406.233 548.381 388.109 548.894C385.665 548.97 383.202 548.999 380.73 548.999C379.503 548.999 378.296 548.99 377.069 548.98C376.696 548.98 376.322 548.97 375.948 548.961C374.865 548.932 373.744 548.913 372.613 548.884C350.744 548.201 329.053 544.709 308.073 538.494L307.181 538.235C305.801 537.813 304.431 537.401 303.061 536.959C296.736 534.954 290.504 532.709 284.365 530.225C279.679 528.335 275.047 526.307 270.469 524.142C270.428 524.131 270.388 524.111 270.354 524.085C269.396 523.643 268.428 523.183 267.47 522.713C267.345 522.646 267.211 522.578 267.077 522.511C263.503 520.765 259.967 518.936 256.469 517.024C253.527 510.26 249.387 508.965 246.819 503.017C246.071 501.25 245.531 499.402 245.209 497.51C245.209 497.491 245.199 497.472 245.199 497.443C245.468 501.012 244.059 491.111 245.19 497.405C245.18 497.29 245.171 497.165 245.161 497.021C245.132 496.676 245.094 496.254 245.036 495.726C241.75 463.597 241.96 426.854 240.533 396.576C240.437 394.619 240.338 392.745 240.235 390.954C240.207 390.36 240.168 389.774 240.13 389.199C240.197 389.026 240.274 388.844 240.36 388.671C240.378 388.621 240.401 388.573 240.427 388.527C240.455 388.468 240.487 388.41 240.523 388.355C240.542 388.326 240.571 388.287 240.59 388.259C240.604 388.226 240.62 388.194 240.638 388.163C240.724 388.028 240.82 387.884 240.925 387.75C240.973 387.693 241.012 387.645 241.06 387.597C241.093 387.548 241.131 387.503 241.175 387.462C241.204 387.416 241.239 387.374 241.28 387.338C241.318 387.299 241.357 387.251 241.405 387.203C241.425 387.173 241.451 387.147 241.481 387.127C241.557 387.039 241.64 386.959 241.73 386.887C242.072 386.572 242.437 386.283 242.823 386.023C242.957 385.937 243.101 385.851 243.235 385.755C244.201 385.176 245.217 384.688 246.273 384.297C246.637 384.162 247.001 384.038 247.394 383.903C247.538 383.865 247.672 383.817 247.815 383.769C248.026 383.702 248.237 383.635 248.458 383.587C249.55 383.26 250.729 382.982 252.003 382.723C252.157 382.694 252.319 382.666 252.482 382.627C252.712 382.579 252.952 382.541 253.191 382.503C253.517 382.445 253.853 382.387 254.188 382.33C257.034 381.879 260.264 381.543 263.828 381.323C264.164 381.303 264.499 381.284 264.835 381.265C265.228 381.246 265.62 381.227 266.023 381.207C266.358 381.188 266.703 381.179 267.048 381.169C267.384 381.15 267.729 381.14 268.083 381.131C269.051 381.102 270.048 381.073 271.064 381.054C273.958 380.996 277.005 381.016 280.206 381.083C281.691 381.121 283.205 381.159 284.757 381.227C284.863 381.227 284.959 381.236 285.055 381.236C286.406 381.284 287.766 381.342 289.166 381.418C290.143 381.466 291.13 381.514 292.117 381.572C293.047 381.63 293.986 381.687 294.934 381.754C295.672 381.793 296.41 381.85 297.158 381.898C297.79 381.946 298.423 381.994 299.055 382.032L299.918 382.09C300.387 382.128 300.857 382.157 301.336 382.205C302.39 382.291 303.444 382.378 304.517 382.464C305.581 382.56 306.664 382.656 307.747 382.752C308.83 382.848 309.922 382.953 311.015 383.059C311.13 383.069 311.235 383.078 311.34 383.088C312.337 383.193 313.334 383.289 314.34 383.395C314.57 383.414 314.809 383.433 315.039 383.462C315.999 383.558 316.977 383.671 317.945 383.774C318.242 383.806 318.538 383.838 318.836 383.87C319.594 383.953 320.341 384.024 321.105 384.114C322.111 384.229 323.137 384.335 324.133 384.469C324.91 384.556 325.686 384.642 326.462 384.738C327.679 384.882 328.915 385.035 330.151 385.198C330.621 385.256 331.091 385.313 331.56 385.381C335.087 385.822 338.651 386.311 342.274 386.82C347.765 387.597 353.342 388.441 358.958 389.352C364.583 390.264 370.24 391.226 375.929 392.24C377.366 392.499 378.804 392.758 380.251 393.027C380.902 393.151 381.554 393.276 382.206 393.401C383.317 393.602 384.429 393.813 385.54 394.024C386.652 394.235 387.764 394.446 388.875 394.667C390.198 394.926 391.53 395.185 392.852 395.444C401.563 397.171 410.226 399.013 418.678 400.941C420.068 401.258 421.457 401.584 422.837 401.901C425.597 402.543 428.331 403.196 431.04 403.858C431.787 404.03 432.525 404.213 433.263 404.395C435.103 404.856 436.943 405.316 438.754 405.786L439.07 405.872C440.402 406.199 441.706 406.534 443.009 406.88C446.085 407.686 449.11 408.501 452.084 409.326C454.058 409.873 456.01 410.426 457.939 410.986C460.824 411.82 463.651 412.665 466.401 413.519C467.081 413.73 467.762 413.941 468.432 414.142C470.445 414.766 472.428 415.399 474.355 416.032C475.888 416.531 477.383 417.039 478.859 417.548C480.334 418.056 481.781 418.565 483.2 419.073C484.11 419.399 485.011 419.745 485.912 420.071C487.205 420.551 488.48 421.03 489.726 421.51C490.109 421.654 490.483 421.807 490.856 421.951C491.096 422.057 491.326 422.143 491.556 422.239C492.006 422.421 492.466 422.594 492.907 422.776C493.357 422.949 493.798 423.131 494.239 423.323C494.67 423.496 495.111 423.678 495.533 423.86C495.964 424.033 496.386 424.215 496.807 424.407C497.162 424.551 497.507 424.705 497.842 424.858C498.523 425.156 499.203 425.453 499.864 425.76C500.19 425.913 500.516 426.057 500.842 426.211L501.589 426.556C501.695 426.614 501.8 426.662 501.905 426.71C502.145 426.825 502.394 426.95 502.634 427.065C503.189 427.324 503.736 427.602 504.272 427.861C504.991 428.226 505.691 428.59 506.361 428.945C507.042 429.31 507.703 429.674 508.335 430.029C508.441 430.087 508.537 430.144 508.642 430.202C508.786 430.279 508.93 430.365 509.073 430.442C509.562 430.72 510.032 431.008 510.501 431.286C511.421 431.852 512.293 432.408 513.108 432.965C513.29 433.089 513.462 433.214 513.644 433.329C514.248 433.761 514.823 434.183 515.36 434.615C515.36 434.624 515.36 434.624 515.369 434.624C515.551 434.759 515.724 434.903 515.896 435.037C516.04 435.171 516.193 435.286 516.337 435.421C516.835 435.852 517.295 436.265 517.717 436.687C517.858 436.817 517.993 436.955 518.12 437.1C518.175 437.146 518.227 437.197 518.273 437.253C518.465 437.445 518.637 437.637 518.8 437.829C518.825 437.855 518.848 437.884 518.867 437.915C519.097 438.184 519.308 438.452 519.509 438.721C519.605 438.855 519.71 438.989 519.797 439.124C519.912 439.287 520.027 439.46 520.122 439.623C520.209 439.757 520.285 439.901 520.362 440.035C520.565 440.381 520.739 440.744 520.879 441.119C520.987 441.374 521.074 441.637 521.138 441.906C521.211 442.161 521.265 442.42 521.301 442.683Z" fill="#2F2E41"/>
<path opacity="0.2" d="M521.301 442.683C521.292 444.362 521.272 446.712 521.196 449.619C521.186 450.022 521.167 450.435 521.157 450.857C521.062 454.934 520.918 459.971 520.717 465.66C520.707 466.005 520.697 466.341 520.678 466.686C520.41 473.632 519.988 481.719 519.26 494.527C517.909 518.185 515.551 497.779 513.184 506.077C506.611 502.029 499.404 497.789 491.7 493.433C490.31 492.646 488.908 491.857 487.493 491.063C472.083 482.458 454.873 473.44 436.905 464.508C436.196 464.154 435.477 463.799 434.768 463.453C393.609 443.086 348.685 423.275 312.289 410.055C305.265 407.503 298.557 405.201 292.251 403.177C278.969 398.927 267.489 395.953 258.654 394.667C249.454 393.324 243.101 393.804 240.532 396.576C240.437 394.619 240.337 392.745 240.235 390.954C240.197 390.36 240.159 389.774 240.12 389.199C240.179 389.041 240.256 388.89 240.331 388.738C240.341 388.716 240.349 388.693 240.36 388.671C240.378 388.621 240.401 388.573 240.427 388.527C240.455 388.468 240.487 388.41 240.523 388.355C240.554 388.287 240.593 388.222 240.638 388.163C240.724 388.028 240.82 387.884 240.925 387.75C241.003 387.65 241.086 387.553 241.174 387.462C241.204 387.416 241.239 387.374 241.28 387.338C241.318 387.299 241.356 387.251 241.404 387.203C241.425 387.173 241.451 387.147 241.481 387.127C241.557 387.039 241.64 386.959 241.73 386.887C242.072 386.572 242.437 386.283 242.823 386.023C242.957 385.937 243.101 385.851 243.235 385.755C244.2 385.176 245.217 384.688 246.273 384.297C246.637 384.162 247.001 384.037 247.394 383.903C247.537 383.865 247.672 383.817 247.815 383.769C248.026 383.702 248.237 383.635 248.457 383.587C249.55 383.26 250.729 382.982 252.003 382.723C252.386 382.646 252.789 382.57 253.191 382.503C253.517 382.445 253.853 382.387 254.188 382.33C257.034 381.879 260.264 381.543 263.828 381.322C264.164 381.303 264.499 381.284 264.835 381.265C265.227 381.246 265.62 381.227 266.023 381.207C266.358 381.188 266.703 381.179 267.048 381.169C267.384 381.15 267.729 381.14 268.083 381.131C269.051 381.102 270.048 381.073 271.063 381.054C273.957 381.006 277.005 381.025 280.205 381.092C281.691 381.121 283.205 381.169 284.757 381.236C284.853 381.236 284.959 381.246 285.054 381.246C286.406 381.284 287.776 381.351 289.165 381.418C290.143 381.466 291.13 381.514 292.117 381.572C293.046 381.629 293.986 381.687 294.934 381.754C295.672 381.793 296.41 381.85 297.158 381.898C297.79 381.946 298.423 381.994 299.055 382.032C299.812 382.09 300.569 382.148 301.336 382.205C302.39 382.291 303.444 382.378 304.517 382.464C305.581 382.56 306.664 382.656 307.747 382.752C308.83 382.848 309.922 382.953 311.014 383.059C311.129 383.068 311.235 383.078 311.34 383.088C312.337 383.193 313.333 383.289 314.34 383.395C319.917 383.961 325.657 384.623 331.56 385.381C335.087 385.831 338.658 386.314 342.274 386.829C347.765 387.606 353.342 388.45 358.958 389.352C364.583 390.264 370.24 391.226 375.929 392.24C377.366 392.499 378.804 392.758 380.251 393.027C382.014 393.353 383.777 393.685 385.54 394.024C386.652 394.235 387.764 394.447 388.875 394.667C390.198 394.926 391.53 395.185 392.852 395.444C401.563 397.171 410.226 399.013 418.678 400.941C420.068 401.258 421.457 401.584 422.837 401.901C425.597 402.543 428.331 403.196 431.04 403.858C431.787 404.04 432.525 404.222 433.263 404.405C435.113 404.865 436.943 405.326 438.754 405.786V405.796C438.86 405.815 438.965 405.844 439.07 405.872C440.393 406.208 441.706 406.544 443.009 406.889C446.085 407.695 449.11 408.507 452.084 409.326C454.058 409.883 456.013 410.429 457.939 410.986C460.824 411.83 463.651 412.674 466.401 413.519C467.081 413.73 467.762 413.941 468.432 414.142C470.445 414.775 472.419 415.405 474.355 416.032C475.888 416.531 477.383 417.039 478.859 417.548C480.334 418.056 481.781 418.565 483.2 419.073C484.12 419.399 485.02 419.735 485.912 420.061C487.215 420.541 488.48 421.021 489.725 421.51C490.109 421.654 490.483 421.807 490.856 421.951C491.556 422.22 492.236 422.498 492.907 422.776C493.357 422.949 493.798 423.131 494.239 423.323C494.67 423.496 495.111 423.678 495.533 423.86C495.964 424.033 496.386 424.215 496.807 424.407C497.162 424.551 497.507 424.705 497.842 424.858C498.523 425.156 499.203 425.453 499.864 425.76C500.19 425.913 500.516 426.057 500.842 426.211L501.589 426.556C501.695 426.614 501.8 426.662 501.905 426.71C502.72 427.093 503.506 427.477 504.272 427.861C504.991 428.225 505.691 428.59 506.361 428.945C507.157 429.367 507.914 429.78 508.642 430.202C508.786 430.278 508.93 430.365 509.073 430.442C509.562 430.72 510.032 431.008 510.501 431.286C511.421 431.852 512.293 432.408 513.108 432.965C513.913 433.521 514.66 434.068 515.36 434.615C515.36 434.624 515.36 434.624 515.369 434.624C515.705 434.893 516.031 435.162 516.337 435.421C516.835 435.852 517.295 436.265 517.717 436.687C517.858 436.817 517.993 436.955 518.12 437.099C518.175 437.146 518.227 437.197 518.273 437.253C518.474 437.474 518.675 437.694 518.867 437.915C519.097 438.184 519.308 438.452 519.509 438.721C519.605 438.855 519.71 438.989 519.797 439.124C519.912 439.287 520.027 439.46 520.122 439.623C520.209 439.757 520.285 439.901 520.362 440.035C520.565 440.381 520.739 440.744 520.879 441.119C520.984 441.375 521.071 441.638 521.138 441.906C521.211 442.161 521.265 442.42 521.301 442.683Z" fill="black"/>
</g>
<defs>
<clipPath id="clip0_60_59">
<rect width="754" height="549" fill="white"/>
</clipPath>
</defs>
</svg>
