<svg width="99" height="112" viewBox="0 0 99 112" fill="none" xmlns="http://www.w3.org/2000/svg">
<g clip-path="url(#clip0_137_11)">
<path d="M49.5221 30.8437C35.4676 30.8437 24.1312 42.0656 24.1312 55.9781C24.1312 69.8906 35.4676 81.1124 49.5221 81.1124C63.5766 81.1124 74.9129 69.8906 74.9129 55.9781C74.9129 42.0656 63.5766 30.8437 49.5221 30.8437ZM49.5221 72.3187C40.4397 72.3187 33.0147 64.9906 33.0147 55.9781C33.0147 46.9656 40.4176 39.6374 49.5221 39.6374C58.6266 39.6374 66.0295 46.9656 66.0295 55.9781C66.0295 64.9906 58.6045 72.3187 49.5221 72.3187ZM81.8739 29.8156C81.8739 33.0749 79.2221 35.6781 75.9516 35.6781C72.6589 35.6781 70.0292 33.0531 70.0292 29.8156C70.0292 26.5781 72.681 23.9531 75.9516 23.9531C79.2221 23.9531 81.8739 26.5781 81.8739 29.8156ZM98.6906 35.7656C98.3149 27.9125 96.5029 20.9562 90.6911 15.2249C84.9013 9.4937 77.8741 7.69995 69.9408 7.3062C61.7645 6.84683 37.2576 6.84683 29.0812 7.3062C21.1701 7.67808 14.1429 9.47183 8.33103 15.2031C2.5192 20.9343 0.729244 27.8906 0.331476 35.7437C-0.132587 43.8374 -0.132587 68.0968 0.331476 76.1906C0.707145 84.0437 2.5192 90.9999 8.33103 96.7312C14.1429 102.462 21.148 104.256 29.0812 104.65C37.2576 105.109 61.7645 105.109 69.9408 104.65C77.8741 104.278 84.9013 102.484 90.6911 96.7312C96.4808 90.9999 98.2928 84.0437 98.6906 76.1906C99.1547 68.0968 99.1547 43.8593 98.6906 35.7656ZM88.1277 84.8749C86.404 89.1624 83.0672 92.4656 78.7138 94.1937C72.1949 96.7531 56.7261 96.1624 49.5221 96.1624C42.3181 96.1624 26.8272 96.7312 20.3304 94.1937C15.9991 92.4874 12.6623 89.1843 10.9165 84.8749C8.33103 78.4218 8.92768 63.1093 8.92768 55.9781C8.92768 48.8468 8.35313 33.5124 10.9165 27.0812C12.6402 22.7937 15.977 19.4906 20.3304 17.7624C26.8493 15.2031 42.3181 15.7937 49.5221 15.7937C56.7261 15.7937 72.217 15.2249 78.7138 17.7624C83.0451 19.4687 86.3819 22.7718 88.1277 27.0812C90.7132 33.5343 90.1165 48.8468 90.1165 55.9781C90.1165 63.1093 90.7132 78.4437 88.1277 84.8749Z" fill="#FF5C00"/>
</g>
<defs>
<clipPath id="clip0_137_11">
<rect width="99" height="112" fill="white"/>
</clipPath>
</defs>
</svg>
