<svg width="60" height="60" viewBox="0 0 60 60" fill="none" xmlns="http://www.w3.org/2000/svg">
<path d="M30 55C43.8071 55 55 43.8071 55 30C55 16.1929 43.8071 5 30 5C16.1929 5 5 16.1929 5 30C5 43.8071 16.1929 55 30 55Z" fill="#237255"/>
<path d="M24.6962 33.535L33.535 24.6963L35.3025 26.4638L26.4637 35.3025L24.6962 33.535Z" fill="white"/>
<path d="M30.8838 20.2775C30.255 20.9063 27.9775 23.1838 27.3488 23.8125L29.1163 25.58C29.7988 24.8975 31.97 22.7263 32.6513 22.045C34.1163 20.58 36.49 20.58 37.955 22.045C39.42 23.51 39.42 25.8838 37.955 27.3488C37.2725 28.0313 35.1013 30.2025 34.42 30.8838L36.1875 32.6513C36.8163 32.0225 39.0938 29.745 39.7225 29.1163C42.1625 26.6763 42.1625 22.7175 39.7225 20.2775C37.2825 17.8375 33.3238 17.8375 30.8838 20.2775ZM29.1163 39.7225C29.745 39.0938 32.0225 36.8163 32.6513 36.1875L30.8838 34.42C30.2013 35.1025 28.03 37.2738 27.3488 37.955C25.8838 39.42 23.51 39.42 22.045 37.955C20.58 36.49 20.58 34.1163 22.045 32.6513C22.7275 31.9688 24.8988 29.7975 25.58 29.1163L23.8125 27.3488C23.1838 27.9775 20.9063 30.255 20.2775 30.8838C17.8375 33.3238 17.8375 37.2825 20.2775 39.7225C22.7175 42.1625 26.6763 42.1625 29.1163 39.7225Z" fill="#F0FFFE"/>
</svg>
