<?xml version="1.0" standalone="no"?>
<!DOCTYPE svg PUBLIC "-//W3C//DTD SVG 20010904//EN"
 "http://www.w3.org/TR/2001/REC-SVG-20010904/DTD/svg10.dtd">
<svg version="1.0" xmlns="http://www.w3.org/2000/svg"
 width="1000.000000pt" height="1000.000000pt" viewBox="0 0 1000.000000 1000.000000"
 preserveAspectRatio="xMidYMid meet">

<g transform="translate(0.000000,1000.000000) scale(0.100000,-0.100000)"
fill="#000000" stroke="none">
<path d="M2972 8659 c-58 -11 -137 -56 -174 -98 -17 -19 -43 -60 -57 -91 l-26
-55 0 -1220 0 -1220 26 -55 c37 -79 81 -125 155 -161 74 -37 47 -36 689 -31
l390 2 58 93 57 92 -57 6 c-32 4 -280 7 -552 8 l-493 1 -34 34 -34 34 0 1186
c0 1304 -4 1228 60 1261 25 13 190 15 1362 15 l1333 0 61 98 c34 53 61 98 60
98 -7 6 -2792 10 -2824 3z"/>
<path d="M5210 8189 c-14 -5 -99 -87 -190 -181 l-165 -170 -100 17 c-501 87
-948 -300 -947 -820 0 -209 41 -305 130 -305 35 -1 49 11 263 229 l226 231
139 -38 139 -37 20 -71 20 -71 73 115 c69 109 72 117 61 145 -7 16 -22 35 -33
42 -30 19 -415 125 -456 125 -30 0 -52 -18 -208 -172 l-174 -173 6 45 c14 97
30 148 68 230 57 119 159 221 278 278 47 22 109 45 138 51 84 17 208 13 290
-9 115 -32 124 -30 204 48 39 37 133 133 209 214 125 132 139 151 139 182 0
66 -72 118 -130 95z"/>
<path d="M4380 6414 c-30 -35 -50 -73 -50 -97 0 -10 36 42 84 121 14 23 -2 12
-34 -24z"/>
<path d="M772 4629 c-145 -15 -250 -61 -334 -145 -96 -95 -138 -217 -138 -399
0 -183 36 -282 139 -386 83 -82 178 -131 379 -194 248 -79 346 -137 400 -239
25 -48 27 -59 27 -181 0 -122 -2 -133 -28 -187 -33 -68 -82 -111 -152 -135
-71 -25 -279 -25 -352 0 -110 39 -184 128 -199 239 l-7 48 -123 0 -124 0 0
-37 c0 -21 7 -66 15 -101 44 -188 163 -311 358 -370 73 -23 100 -25 247 -25
136 0 178 4 242 21 107 29 173 65 238 131 101 101 143 223 144 416 1 135 -12
200 -56 289 -35 70 -120 162 -190 207 -70 45 -208 103 -334 139 -195 56 -296
119 -347 214 -19 36 -22 57 -22 161 0 116 1 122 31 175 56 100 186 151 346
136 167 -15 267 -98 299 -246 l11 -50 125 0 126 0 -7 54 c-15 133 -82 269
-167 338 -125 103 -327 149 -547 127z"/>
<path d="M2256 4583 c-199 -675 -596 -2032 -596 -2037 0 -3 58 -6 129 -6 l129
0 14 48 c8 26 43 156 78 289 l65 243 332 0 333 0 6 -24 c3 -13 39 -143 79
-288 l73 -263 140 -3 141 -3 -14 48 c-8 27 -144 490 -302 1030 l-288 983 -157
0 c-141 0 -157 -2 -162 -17z m412 -1218 c-3 -3 -122 -4 -264 -3 l-260 3 132
475 c73 261 133 477 134 480 1 3 60 -210 132 -473 72 -262 129 -479 126 -482z"/>
<path d="M6282 3573 l3 -1028 128 -3 127 -3 0 421 0 420 219 0 c247 0 337 12
437 59 120 56 186 140 225 288 18 65 22 107 22 258 0 154 -3 192 -22 260 -48
178 -150 278 -336 332 -51 14 -118 17 -433 21 l-372 3 2 -1028z m722 780 c47
-13 72 -28 107 -63 68 -68 82 -129 77 -335 -3 -154 -4 -162 -33 -220 -27 -53
-37 -63 -90 -90 l-60 -30 -232 -3 -233 -3 0 380 0 381 202 0 c159 0 214 -4
262 -17z"/>
<path d="M3923 4165 c-93 -17 -178 -56 -230 -107 l-41 -40 -7 66 -7 66 -109 0
-109 0 0 -1065 0 -1065 125 0 125 0 0 311 0 311 39 -31 c109 -86 291 -121 454
-86 142 30 250 115 312 248 62 130 67 179 62 610 -4 418 -6 437 -69 560 -95
188 -291 268 -545 222z m178 -221 c82 -24 140 -87 170 -184 23 -73 24 -86 24
-410 0 -281 -3 -344 -17 -393 -48 -167 -148 -236 -324 -225 -133 9 -226 78
-266 196 -8 25 -13 150 -15 395 -4 390 1 441 52 519 66 99 232 144 376 102z"/>
<path d="M5282 4169 c-263 -34 -399 -184 -432 -477 -18 -149 -8 -703 14 -796
44 -193 142 -304 316 -357 64 -20 97 -24 220 -24 212 0 328 37 424 132 78 78
115 176 132 346 l6 67 -119 0 -120 0 -11 -80 c-13 -93 -37 -145 -86 -187 -52
-47 -97 -58 -226 -58 -101 0 -120 3 -159 24 -135 71 -155 155 -149 636 4 278
7 328 23 380 25 79 89 145 160 166 64 18 206 18 269 0 102 -30 166 -129 166
-258 l0 -53 122 0 121 0 -6 93 c-18 271 -146 409 -413 446 -85 12 -160 12
-252 0z"/>
<path d="M8276 4169 c-108 -16 -224 -85 -286 -170 l-28 -39 -5 43 c-3 23 -9
66 -12 95 l-7 53 -106 -3 -107 -3 -3 -802 -2 -803 124 0 125 0 3 553 c3 508 5
556 22 601 58 156 168 226 354 226 l82 0 0 124 0 123 -37 7 c-21 3 -42 5 -48
5 -5 -1 -36 -5 -69 -10z"/>
<path d="M9040 4170 c-177 -25 -299 -107 -360 -245 -53 -117 -55 -138 -55
-585 0 -371 2 -422 18 -479 52 -184 158 -288 337 -332 34 -9 111 -14 200 -14
206 1 309 31 408 120 58 52 93 115 124 220 22 78 23 91 23 490 0 368 -2 417
-18 475 -70 246 -207 343 -502 355 -60 2 -139 0 -175 -5z m300 -237 c60 -26
106 -80 127 -151 16 -50 18 -101 18 -432 0 -408 -4 -442 -55 -523 -41 -66 -97
-89 -225 -95 -160 -7 -249 29 -294 117 -40 78 -46 141 -46 501 0 297 3 354 18
409 43 156 118 204 312 198 73 -3 112 -9 145 -24z"/>
<path d="M1516 1519 c-37 -89 -65 -164 -62 -167 3 -3 15 18 27 46 l22 52 83 0
83 0 22 -50 c12 -27 25 -50 29 -50 7 0 -122 315 -133 326 -2 2 -34 -69 -71
-157z m108 41 c20 -46 36 -88 36 -92 0 -4 -34 -8 -76 -8 -57 0 -75 3 -71 13 3
6 20 49 38 95 18 45 33 81 35 79 1 -1 19 -40 38 -87z"/>
<path d="M2554 1529 l-50 -153 -54 149 c-30 82 -55 144 -57 139 -3 -9 103
-313 111 -322 2 -1 24 63 50 143 26 80 49 145 51 145 2 0 25 -66 50 -146 26
-80 48 -144 50 -142 9 10 117 320 112 324 -2 3 -24 -48 -47 -113 -24 -65 -48
-131 -55 -148 -11 -28 -13 -22 -61 124 l-49 153 -51 -153z"/>
<path d="M3116 1520 c-37 -89 -65 -164 -62 -167 2 -3 14 18 27 46 l21 51 84 0
c83 0 85 -1 95 -27 26 -66 32 -77 35 -67 4 8 -100 268 -125 311 -5 9 -31 -42
-75 -147z m108 40 c20 -50 36 -92 36 -95 0 -3 -34 -5 -76 -5 -68 0 -75 2 -70
18 17 43 70 172 72 172 1 0 18 -41 38 -90z"/>
<path d="M4105 1671 c-34 -14 -46 -37 -43 -78 3 -36 7 -40 71 -74 75 -39 87
-51 87 -89 0 -46 -26 -70 -76 -70 -40 0 -46 4 -74 42 -17 24 -30 34 -30 25 0
-9 13 -31 29 -49 25 -28 36 -33 76 -33 58 0 85 27 85 86 0 47 -20 70 -90 100
-28 12 -55 30 -60 40 -26 47 4 89 63 89 28 0 41 -7 61 -32 14 -18 26 -28 26
-21 0 7 -10 23 -22 37 -25 28 -72 40 -103 27z"/>
<path d="M5934 1660 c-115 -58 -113 -245 4 -301 72 -36 144 -16 196 55 17 21
21 42 21 96 0 54 -4 75 -21 96 -52 70 -128 91 -200 54z m173 -44 c55 -60 56
-149 2 -211 -91 -103 -249 -35 -249 106 0 46 30 108 63 129 61 38 136 28 184
-24z"/>
<path d="M7855 1673 c-66 -17 -108 -81 -108 -163 0 -102 56 -164 148 -165 50
0 105 19 105 37 0 5 -13 2 -30 -7 -16 -8 -51 -15 -78 -15 -58 0 -97 25 -118
76 -29 70 -11 161 41 202 34 27 111 30 155 7 17 -9 30 -11 30 -6 0 12 -75 41
-103 40 -12 -1 -31 -4 -42 -6z"/>
<path d="M2010 1510 l0 -160 78 2 77 2 -67 3 -68 4 0 154 c0 97 -4 155 -10
155 -6 0 -10 -60 -10 -160z"/>
<path d="M3550 1665 c0 -6 23 -50 50 -99 45 -79 50 -95 52 -155 l1 -66 6 70
c5 60 13 82 55 155 27 47 51 88 53 93 2 4 1 7 -4 7 -4 0 -30 -38 -56 -85 -27
-47 -50 -85 -52 -85 -2 0 -22 35 -45 78 -42 78 -60 104 -60 87z"/>
<path d="M4922 1508 c1 -90 3 -133 5 -95 4 65 5 67 31 67 80 0 132 37 132 93
0 66 -35 96 -112 97 l-58 0 2 -162z m129 133 c18 -14 24 -29 24 -61 0 -56 -29
-80 -96 -80 l-49 0 0 80 0 80 49 0 c33 0 56 -6 72 -19z"/>
<path d="M5390 1510 c0 -100 4 -160 10 -160 6 0 10 28 10 65 0 64 0 65 28 65
22 -1 37 -14 75 -66 27 -36 51 -63 54 -60 3 3 -16 31 -41 64 -25 32 -46 61
-46 65 0 4 9 7 20 7 36 0 70 44 70 90 0 65 -32 90 -115 90 l-65 0 0 -160z
m145 125 c16 -15 25 -36 25 -55 0 -49 -38 -80 -100 -80 l-50 0 0 80 0 80 50 0
c41 0 56 -5 75 -25z"/>
<path d="M6848 1663 l42 -4 0 -155 c0 -96 4 -154 10 -154 6 0 10 58 10 154 l0
155 43 4 c23 2 -1 4 -53 4 -52 0 -76 -2 -52 -4z"/>
<path d="M7280 1510 l0 -160 88 2 87 2 -82 3 -83 4 0 79 0 79 78 4 77 3 -77 2
-78 2 0 65 0 64 83 4 82 3 -87 2 -88 2 0 -160z"/>
<path d="M8324 1510 c0 -91 2 -128 3 -82 l4 82 104 0 105 0 0 -80 c0 -47 4
-80 10 -80 6 0 10 60 10 160 0 100 -4 160 -10 160 -6 0 -10 -30 -10 -70 l0
-70 -105 0 -104 0 -4 73 c-1 39 -3 -2 -3 -93z"/>
</g>
</svg>
