<svg width="80" height="80" viewBox="0 0 80 80" fill="none" xmlns="http://www.w3.org/2000/svg">
<g clip-path="url(#clip0_68_117)">
<path d="M59.9999 50C57.2389 50 54.9999 52.2391 54.9999 55V70H9.99988V25H24.9999C27.7608 25 29.9999 22.7625 29.9999 20C29.9999 17.2375 27.7608 15 24.9999 15H9.99988C4.47644 15 -0.00012207 19.4766 -0.00012207 25V70C-0.00012207 75.5219 4.47644 80 9.99988 80H54.9999C60.5233 80 64.9999 75.5219 64.9999 70V55C64.9999 52.2344 62.7655 50 59.9999 50ZM78.5311 1.46359C77.6249 0.559062 76.3749 0 74.9999 0H49.9999C47.2389 0 45.1405 2.2375 45.1405 4.85938C45.1405 7.62031 47.378 9.71875 50.1389 9.71875H63.0686L27.9218 45.4219C25.9686 47.375 25.9686 50.5406 27.9218 52.4937C29.8749 54.4531 33.0468 54.4531 34.9999 52.5L69.9999 17.0625V30C69.9999 32.7609 72.2389 34.8594 74.8593 34.8594C77.4796 34.8594 79.9999 32.7656 79.9999 30V4.85938C79.9999 3.61875 79.4374 2.36875 78.5311 1.46359Z" fill="#005248"/>
</g>
<defs>
<clipPath id="clip0_68_117">
<rect width="80" height="80" fill="white" transform="translate(-0.00012207)"/>
</clipPath>
</defs>
</svg>
