<svg width="190" height="54" viewBox="0 0 190 54" fill="none" xmlns="http://www.w3.org/2000/svg">
<rect y="0.75" width="190" height="52.5" rx="26.25" fill="#EEA619"/>
<path d="M27.4486 32.215C28.3126 33.191 29.2246 33.951 30.1846 34.495C31.1446 35.023 32.3126 35.287 33.6886 35.287C34.4246 35.287 35.1366 35.191 35.8246 34.999C36.5286 34.807 37.1046 34.519 37.5526 34.135C38.0006 33.751 38.2246 33.263 38.2246 32.671C38.2246 31.871 37.7766 31.311 36.8806 30.991C36.0006 30.671 34.7526 30.399 33.1366 30.175C31.8086 29.999 30.6566 29.711 29.6806 29.311C28.7046 28.911 27.9446 28.383 27.4006 27.727C26.8726 27.055 26.6086 26.223 26.6086 25.231C26.6086 24.207 26.9206 23.335 27.5446 22.615C28.1686 21.879 29.0086 21.319 30.0646 20.935C31.1366 20.535 32.3206 20.335 33.6166 20.335C35.2006 20.335 36.5766 20.591 37.7446 21.103C38.9126 21.615 39.8326 22.343 40.5046 23.287L38.7526 25.159C38.1766 24.423 37.4486 23.823 36.5686 23.359C35.7046 22.895 34.6966 22.663 33.5446 22.663C32.3606 22.663 31.3686 22.871 30.5686 23.287C29.7686 23.687 29.3686 24.255 29.3686 24.991C29.3686 25.583 29.5606 26.055 29.9446 26.407C30.3446 26.743 30.8886 27.007 31.5766 27.199C32.2806 27.391 33.1046 27.551 34.0486 27.679C34.9446 27.807 35.8006 27.967 36.6166 28.159C37.4486 28.351 38.1926 28.615 38.8486 28.951C39.5046 29.287 40.0246 29.719 40.4086 30.247C40.7926 30.775 40.9846 31.439 40.9846 32.239C40.9846 33.327 40.6806 34.279 40.0726 35.095C39.4806 35.895 38.6246 36.519 37.5046 36.967C36.4006 37.399 35.0966 37.615 33.5926 37.615C31.9766 37.615 30.5126 37.359 29.2006 36.847C27.9046 36.335 26.7606 35.503 25.7686 34.351L27.4486 32.215ZM55.0644 31.159V24.775H57.5364V37.375H55.0644V35.215C54.6004 35.823 53.9124 36.375 53.0004 36.871C52.0884 37.367 50.9764 37.615 49.6644 37.615C48.6084 37.615 47.6804 37.375 46.8804 36.895C46.0964 36.399 45.4804 35.695 45.0324 34.783C44.6004 33.871 44.3844 32.783 44.3844 31.519V24.775H46.8564V30.679C46.8564 32.119 47.1524 33.239 47.7444 34.039C48.3524 34.839 49.3284 35.239 50.6724 35.239C51.4724 35.239 52.2004 35.079 52.8564 34.759C53.5284 34.423 54.0644 33.951 54.4644 33.343C54.8644 32.735 55.0644 32.007 55.0644 31.159ZM70.2318 24.511C71.5598 24.511 72.7598 24.791 73.8318 25.351C74.9038 25.895 75.7518 26.663 76.3758 27.655C76.9998 28.631 77.3118 29.759 77.3118 31.039C77.3118 32.319 76.9998 33.455 76.3758 34.447C75.7678 35.439 74.9198 36.215 73.8318 36.775C72.7438 37.335 71.5118 37.615 70.1358 37.615C69.0638 37.615 68.0878 37.423 67.2078 37.039C66.3438 36.655 65.6478 36.223 65.1198 35.743V37.303H62.6478V19.615H65.1198V26.503C65.6158 25.991 66.3118 25.535 67.2078 25.135C68.1198 24.719 69.1278 24.511 70.2318 24.511ZM69.8958 26.791C68.9038 26.791 68.0238 26.975 67.2558 27.343C66.4878 27.711 65.8878 28.215 65.4558 28.855C65.0238 29.495 64.8078 30.223 64.8078 31.039C64.8078 31.855 65.0238 32.583 65.4558 33.223C65.8878 33.863 66.4878 34.375 67.2558 34.759C68.0238 35.143 68.9038 35.335 69.8958 35.335C70.8718 35.335 71.7358 35.143 72.4878 34.759C73.2558 34.375 73.8478 33.863 74.2638 33.223C74.6958 32.583 74.9118 31.855 74.9118 31.039C74.9118 30.223 74.6958 29.495 74.2638 28.855C73.8478 28.215 73.2558 27.711 72.4878 27.343C71.7358 26.975 70.8718 26.791 69.8958 26.791ZM89.9246 28.183C89.3166 27.719 88.5806 27.335 87.7166 27.031C86.8526 26.711 86.0286 26.551 85.2446 26.551C84.7646 26.551 84.2606 26.591 83.7326 26.671C83.2046 26.751 82.7486 26.903 82.3646 27.127C81.9966 27.335 81.8126 27.647 81.8126 28.063C81.8126 28.431 81.9886 28.735 82.3406 28.975C82.7086 29.215 83.1806 29.415 83.7566 29.575C84.3486 29.719 84.9966 29.855 85.7006 29.983C86.3886 30.111 87.0606 30.263 87.7166 30.439C88.3886 30.599 88.9966 30.815 89.5406 31.087C90.0846 31.343 90.5166 31.679 90.8366 32.095C91.1726 32.495 91.3406 32.999 91.3406 33.607C91.3406 34.487 91.0766 35.223 90.5486 35.815C90.0206 36.407 89.3166 36.855 88.4366 37.159C87.5726 37.463 86.6206 37.615 85.5806 37.615C84.2686 37.615 83.0446 37.439 81.9086 37.087C80.7726 36.735 79.8206 36.127 79.0526 35.263L80.7326 33.727C81.3086 34.303 81.9886 34.751 82.7726 35.071C83.5566 35.391 84.4446 35.551 85.4366 35.551C85.9166 35.551 86.4206 35.511 86.9486 35.431C87.4926 35.335 87.9486 35.175 88.3166 34.951C88.7006 34.727 88.8926 34.399 88.8926 33.967C88.8926 33.599 88.7006 33.311 88.3166 33.103C87.9486 32.879 87.4606 32.695 86.8526 32.551C86.2606 32.407 85.6126 32.279 84.9086 32.167C84.1566 32.023 83.4446 31.863 82.7726 31.687C82.1006 31.511 81.5086 31.287 80.9966 31.015C80.4846 30.727 80.0766 30.359 79.7726 29.911C79.4846 29.447 79.3406 28.863 79.3406 28.159C79.3406 27.407 79.5966 26.759 80.1086 26.215C80.6366 25.671 81.3486 25.255 82.2446 24.967C83.1406 24.663 84.1326 24.511 85.2206 24.511C85.8926 24.511 86.6046 24.583 87.3566 24.727C88.1086 24.855 88.8286 25.071 89.5166 25.375C90.2046 25.663 90.7886 26.047 91.2686 26.527L89.9246 28.183ZM95.6128 31.063C95.6128 31.895 95.8288 32.639 96.2608 33.295C96.7088 33.935 97.3008 34.447 98.0368 34.831C98.7888 35.199 99.6128 35.383 100.509 35.383C101.661 35.383 102.653 35.191 103.485 34.807C104.317 34.407 105.029 33.999 105.621 33.583L106.965 35.431C106.181 36.023 105.245 36.535 104.157 36.967C103.069 37.399 101.821 37.615 100.413 37.615C99.0208 37.615 97.7728 37.327 96.6688 36.751C95.5648 36.175 94.6928 35.391 94.0528 34.399C93.4128 33.407 93.0928 32.295 93.0928 31.063C93.0928 29.815 93.4128 28.703 94.0528 27.727C94.6928 26.735 95.5648 25.951 96.6688 25.375C97.7728 24.799 99.0208 24.511 100.413 24.511C101.805 24.511 103.077 24.735 104.229 25.183C105.397 25.615 106.309 26.215 106.965 26.983L105.573 28.903C105.189 28.503 104.717 28.143 104.157 27.823C103.597 27.487 102.997 27.223 102.357 27.031C101.717 26.839 101.093 26.743 100.485 26.743C99.5248 26.743 98.6768 26.935 97.9408 27.319C97.2048 27.687 96.6288 28.199 96.2128 28.855C95.8128 29.495 95.6128 30.231 95.6128 31.063ZM119.666 27.679C119.362 27.519 118.994 27.391 118.562 27.295C118.13 27.183 117.714 27.127 117.314 27.127C116.482 27.127 115.738 27.311 115.082 27.679C114.442 28.047 113.938 28.527 113.57 29.119C113.218 29.695 113.042 30.303 113.042 30.943V37.375H110.546V24.775H113.042V27.463C113.538 26.599 114.21 25.895 115.058 25.351C115.922 24.791 116.818 24.511 117.746 24.511C118.242 24.511 118.722 24.567 119.186 24.679C119.666 24.775 120.042 24.911 120.314 25.087L119.666 27.679ZM124.941 22.039C124.365 22.039 123.941 21.895 123.669 21.607C123.413 21.319 123.285 20.943 123.285 20.479C123.285 20.079 123.413 19.719 123.669 19.399C123.941 19.079 124.365 18.919 124.941 18.919C125.501 18.919 125.917 19.063 126.189 19.351C126.461 19.639 126.597 20.015 126.597 20.479C126.597 20.879 126.461 21.239 126.189 21.559C125.917 21.879 125.501 22.039 124.941 22.039ZM126.165 37.375H123.693V24.775H126.165V37.375ZM139.241 24.511C140.569 24.511 141.769 24.791 142.841 25.351C143.913 25.895 144.761 26.663 145.385 27.655C146.009 28.631 146.321 29.759 146.321 31.039C146.321 32.319 146.009 33.455 145.385 34.447C144.777 35.439 143.929 36.215 142.841 36.775C141.753 37.335 140.521 37.615 139.145 37.615C138.073 37.615 137.097 37.423 136.217 37.039C135.353 36.655 134.657 36.223 134.129 35.743V37.303H131.657V19.615H134.129V26.503C134.625 25.991 135.321 25.535 136.217 25.135C137.129 24.719 138.137 24.511 139.241 24.511ZM138.905 26.791C137.913 26.791 137.033 26.975 136.265 27.343C135.497 27.711 134.897 28.215 134.465 28.855C134.033 29.495 133.817 30.223 133.817 31.039C133.817 31.855 134.033 32.583 134.465 33.223C134.897 33.863 135.497 34.375 136.265 34.759C137.033 35.143 137.913 35.335 138.905 35.335C139.881 35.335 140.745 35.143 141.497 34.759C142.265 34.375 142.857 33.863 143.273 33.223C143.705 32.583 143.921 31.855 143.921 31.039C143.921 30.223 143.705 29.495 143.273 28.855C142.857 28.215 142.265 27.711 141.497 27.343C140.745 26.975 139.881 26.791 138.905 26.791ZM162.414 35.719H162.39C161.942 36.039 161.382 36.351 160.71 36.655C160.054 36.943 159.326 37.175 158.526 37.351C157.726 37.527 156.91 37.615 156.078 37.615C154.494 37.615 153.094 37.343 151.878 36.799C150.678 36.239 149.742 35.479 149.07 34.519C148.398 33.543 148.062 32.439 148.062 31.207C148.062 29.799 148.414 28.599 149.118 27.607C149.838 26.599 150.79 25.831 151.974 25.303C153.158 24.759 154.454 24.487 155.862 24.487C157.174 24.487 158.366 24.751 159.438 25.279C160.51 25.791 161.366 26.503 162.006 27.415C162.646 28.327 162.966 29.391 162.966 30.607L162.942 31.831H150.582C150.806 32.919 151.446 33.775 152.502 34.399C153.574 35.023 154.902 35.335 156.486 35.335C157.67 35.335 158.638 35.167 159.39 34.831C160.158 34.495 160.782 34.175 161.262 33.871L162.414 35.719ZM155.862 26.767C154.566 26.767 153.43 27.007 152.454 27.487C151.494 27.951 150.886 28.743 150.63 29.863H160.446V29.527C160.366 28.983 160.102 28.503 159.654 28.087C159.206 27.671 158.646 27.351 157.974 27.127C157.318 26.887 156.614 26.767 155.862 26.767Z" fill="#22255B"/>
</svg>
