<svg width="90" height="101" viewBox="0 0 90 101" fill="none" xmlns="http://www.w3.org/2000/svg">
<g clip-path="url(#clip0_137_17)">
<path d="M90 41.4061C81.1537 41.4275 72.5241 38.7191 65.3304 33.6634V68.9246C65.3283 75.457 63.2951 81.833 59.5027 87.2C55.7103 92.567 50.3395 96.669 44.1086 98.9574C37.8777 101.246 31.0837 101.612 24.6353 100.006C18.187 98.4 12.3916 94.8992 8.02442 89.9715C3.65719 85.0439 0.926274 78.9243 0.196914 72.4313C-0.532446 65.9383 0.774519 59.3814 3.94301 53.6376C7.11151 47.8937 11.9905 43.2368 17.9274 40.2895C23.8643 37.3422 30.5761 36.2452 37.1652 37.1451V54.8793C34.1511 53.9483 30.9145 53.9764 27.9176 54.9594C24.9206 55.9425 22.3167 57.8302 20.4776 60.3531C18.6385 62.8761 17.6582 65.9051 17.6768 69.0077C17.6954 72.1103 18.7119 75.1278 20.5812 77.6292C22.4505 80.1307 25.0769 81.9882 28.0854 82.9365C31.0939 83.8848 34.3306 83.8755 37.3333 82.9097C40.336 81.9439 42.9512 80.0712 44.8054 77.5589C46.6596 75.0466 47.6579 72.0233 47.6578 68.9207V0H65.3364C65.3241 1.46596 65.4492 2.92992 65.71 4.37338C66.3243 7.59595 67.6016 10.6616 69.4638 13.3829C71.3259 16.1041 73.7338 18.4238 76.5402 20.2C80.5326 22.7926 85.2136 24.1743 90 24.1729V41.4061Z" fill="#CC00FF"/>
</g>
<defs>
<clipPath id="clip0_137_17">
<rect width="90" height="101" fill="white"/>
</clipPath>
</defs>
</svg>
