<svg width="75" height="50" viewBox="0 0 75 50" fill="none" xmlns="http://www.w3.org/2000/svg">
<g clip-path="url(#clip0_60_343)">
<path d="M7.90909 3C5.97816 3 4.5 4.47816 4.5 6.40909V29.1364C4.5 31.0673 5.97816 32.5455 7.90909 32.5455H7.98011L12.9872 26.544L13.3423 26.1179C12.9961 26.2511 12.7653 26.3443 12.7031 26.3665L11.9929 24.2003C12.055 24.1781 15.1756 23.1127 18.2074 20.9688C15.2999 18.3276 13.8262 15.6376 13.733 15.4645L15.7216 14.3991C15.7438 14.4391 17.1909 17.027 20.0185 19.5128C21.8473 17.8615 23.392 15.7619 23.7472 13.2273H10.1818V10.9545H19.2727V8.68182H21.5455V10.9545H29.5V13.2273H26.0199C25.6825 16.3967 23.9691 18.949 21.8651 20.9332C22.7173 21.5236 23.6451 22.0652 24.6705 22.5312C25.6559 21.6923 26.9343 21.1818 28.3636 21.1818H34.0455V6.40909C34.0455 4.47816 32.5673 3 30.6364 3H7.90909ZM20.054 22.4602C18.416 23.6854 16.7159 24.5909 15.3665 25.2301L16.4673 26.544L21.4744 32.5455H22.6818V26.8636C22.6818 25.9714 22.8949 25.1236 23.25 24.3778C22.0737 23.8052 21.0128 23.1616 20.054 22.4602ZM28.3636 23.4545C26.4327 23.4545 24.9545 24.9327 24.9545 26.8636V36.0256L30.956 41.0327L33.0511 42.7727L30.956 44.5128L24.9545 49.5199V49.5909C24.9545 51.5218 26.4327 53 28.3636 53H51.0909C53.0218 53 54.5 51.5218 54.5 49.5909V26.8636C54.5 24.9327 53.0218 23.4545 51.0909 23.4545H28.3636ZM14.7273 28L9.04545 34.8182H12.4545V39.3636H17V34.8182H20.4091L14.7273 28ZM38.5909 29.598H40.9702L46.9006 45.2585H44.0597L42.7812 41.6364H36.7798L35.5369 45.2585H32.696L38.5909 29.598ZM39.7273 33.0071L37.4545 39.4702H42L39.7273 33.0071ZM22.6818 37.0909V40.5H12.4545L17 45.0455H22.6818V48.4545L29.5 42.7727L22.6818 37.0909Z" fill="#EBA419"/>
</g>
<defs>
<clipPath id="clip0_60_343">
<path d="M0 0H75V30C75 41.0457 66.0457 50 55 50H0V0Z" fill="white"/>
</clipPath>
</defs>
</svg>
