<svg width="118" height="118" viewBox="0 0 118 118" fill="none" xmlns="http://www.w3.org/2000/svg">
<g clip-path="url(#clip0_138_18)">
<path d="M105.877 34.962C105.952 36.0102 105.952 37.0586 105.952 38.1079C105.952 70.074 81.6147 106.926 37.1342 106.926C23.4328 106.926 10.6995 102.957 0.00570679 96.0685C1.95248 96.293 3.82457 96.3679 5.84578 96.3679C17.1526 96.3679 27.5582 92.549 35.8759 86.036C25.2443 85.8113 16.3344 78.8477 13.2646 69.2648C14.7622 69.4893 16.2584 69.6391 17.8325 69.6391C20.0037 69.6391 22.1745 69.3395 24.1957 68.8156C13.1148 66.5692 4.80406 56.8358 4.80406 45.2847V44.9854C8.02371 46.7823 11.7665 47.9054 15.7352 48.0552C9.22215 43.7132 4.95387 36.299 4.95387 27.9145C4.95387 23.4227 6.15161 19.3042 8.24727 15.7112C20.151 30.3852 38.0469 39.9796 58.1207 41.0167C57.7464 39.2197 57.5217 37.3476 57.5217 35.4762C57.5217 22.1482 68.303 11.3 81.6979 11.3C88.6603 11.3 94.9498 14.2201 99.3679 18.9378C104.835 17.8896 110.075 15.8679 114.717 13.0977C112.92 18.7142 109.101 23.4296 104.086 26.4257C108.953 25.9019 113.668 24.5538 118.013 22.6829C114.719 27.4743 110.601 31.7426 105.883 35.1858L105.877 34.962Z" fill="#0066FF"/>
</g>
<defs>
<clipPath id="clip0_138_18">
<rect width="118" height="118" fill="white"/>
</clipPath>
</defs>
</svg>
