<svg width="48" height="48" viewBox="0 0 48 48" fill="none" xmlns="http://www.w3.org/2000/svg">
<path d="M23.8574 8.5C17.5047 8.5 11.6023 8.95262 8.23438 9.65625C8.2272 9.65815 8.22004 9.6601 8.21289 9.66211C5.67548 10.2307 3.28619 12.0482 2.7832 14.8945C2.78254 14.8984 2.78189 14.9023 2.78125 14.9062C2.39484 17.2003 2 20.1907 2 24.5C2 28.8012 2.39619 31.7123 2.88477 34.127C3.40008 36.8893 5.73422 38.7618 8.31055 39.3379C8.32287 39.3413 8.33525 39.3446 8.34766 39.3477C11.8627 40.0403 17.5985 40.5 23.9512 40.5C30.3039 40.5 36.0427 40.0403 39.5586 39.3477C39.571 39.3446 39.5834 39.3413 39.5957 39.3379C42.1331 38.7693 44.5224 36.9518 45.0254 34.1055C45.0267 34.0983 45.028 34.0912 45.0293 34.084C45.4098 31.7432 45.9028 28.7556 46 24.4395C46.0001 24.4284 46.0001 24.4173 46 24.4062C46 20.0877 45.5057 17.0787 45.0234 14.6953C44.5122 11.9271 42.1754 10.0495 39.5957 9.47266C39.5563 9.46389 39.5165 9.45673 39.4766 9.45117C36.0464 8.96895 30.2111 8.5 23.8574 8.5ZM20.1562 17.002C20.5267 16.9943 20.9095 17.0819 21.2695 17.2852L29.873 22.1465C31.324 22.9665 31.324 25.0355 29.873 25.8555L21.2695 30.7168C19.8305 31.5288 18.0371 30.5003 18.0371 28.8613V19.1387C18.0371 17.9094 19.045 17.0249 20.1562 17.002Z" fill="#EEA619"/>
</svg>
